<svg xmlns="http://www.w3.org/2000/svg" width="28" height="28" viewBox="0 0 28 28">
  <g id="Group_24302" data-name="Group 24302" transform="translate(-27 -266)">
    <circle id="Ellipse_614" data-name="Ellipse 614" cx="14" cy="14" r="14" transform="translate(27 266)" fill="#8f95e6" opacity="0.093"/>
    <g id="hand-graving-smartphone_1_" data-name="hand-graving-smartphone (1)" transform="translate(32.77 272.532)">
      <g id="Group_15140" data-name="Group 15140" transform="translate(1.23)">
        <path id="Path_7734" data-name="Path 7734" d="M56.021,32.195H54.268a.828.828,0,0,0-.828.829v.09a.829.829,0,0,0,.829.83h1.753a.831.831,0,0,0,.83-.83v-.091A.828.828,0,0,0,56.021,32.195Z" transform="translate(-41.876 -25.064)" fill="#8f95e6"/>
        <path id="Path_7735" data-name="Path 7735" d="M15.376,5.061h-.365V1.049A1.052,1.052,0,0,0,13.962,0H7.043A1.052,1.052,0,0,0,5.994,1.049V3.928c-1.4.789-2.835,1.613-2.838,1.615C2.375,5.864,1.23,6.9,1.23,9.352a5.914,5.914,0,0,0,.035.616c.006.057.014.112.021.167q.03.215.076.411c.011.047.019.1.031.14a4.041,4.041,0,0,0,.14.426c.027.067.055.127.084.19s.062.13.1.191.078.143.12.21l.032.045A3.71,3.71,0,0,0,4.735,13.28H5.994v1.191a1.051,1.051,0,0,0,1.049,1.048h6.919a1.052,1.052,0,0,0,1.049-1.048V13.018h.364a.829.829,0,0,0,.83-.83V12.1a.829.829,0,0,0-.83-.828H13.621a.828.828,0,0,0-.828.829v.092a.829.829,0,0,0,.829.829h.659v.561H6.724V6.052c.38-.241.731-.472.932-.628,1.016-.785,1.979-1.411,2.11-1.978.17-.736-.4-1.356-1.375-.847-.309.16-.942.512-1.666.918V1.662h7.557v3.4h-.658a.83.83,0,0,0-.83.83v.09a.829.829,0,0,0,.829.829h1.754a.829.829,0,0,0,.829-.829V5.889A.828.828,0,0,0,15.376,5.061ZM10.5,13.948a.524.524,0,1,1-.523.524A.524.524,0,0,1,10.5,13.948ZM11.609,1.01H9.4a.127.127,0,1,1,0-.254h2.214a.127.127,0,0,1,0,.254Z" transform="translate(-1.23)" fill="#8f95e6"/>
        <path id="Path_7736" data-name="Path 7736" d="M56.017,41.538H54.264a.83.83,0,0,0-.829.83v.091a.829.829,0,0,0,.829.829h1.753a.83.83,0,0,0,.83-.829v-.091A.829.829,0,0,0,56.017,41.538Z" transform="translate(-41.872 -32.338)" fill="#8f95e6"/>
      </g>
    </g>
  </g>
</svg>
