<svg xmlns="http://www.w3.org/2000/svg" width="22.091" height="19.416" viewBox="0 0 22.091 19.416">
  <g id="bubble-chat" transform="translate(0 -31)">
    <path id="Path_7726" data-name="Path 7726" d="M20.713,45.616a7.324,7.324,0,0,0-1.107-9.772A8.641,8.641,0,0,0,14.74,33.65c-.011-.014-.023-.028-.036-.041A8.746,8.746,0,0,0,8.413,31C3.842,31,0,34.406,0,38.766a7.29,7.29,0,0,0,1.377,4.26L.117,46.984a.647.647,0,0,0,.91.773l3.833-1.949a8.886,8.886,0,0,0,2.486.662,8.688,8.688,0,0,0,6.331,2.651A9.051,9.051,0,0,0,17.23,48.4l3.833,1.949a.647.647,0,0,0,.91-.773ZM5.121,44.506a.647.647,0,0,0-.571.008L1.82,45.9l.891-2.8a.647.647,0,0,0-.107-.595,6.035,6.035,0,0,1-1.31-3.742c0-3.569,3.194-6.472,7.119-6.472a7.589,7.589,0,0,1,4.337,1.341,8.02,8.02,0,0,0-7.486,7.72A7.256,7.256,0,0,0,6.2,44.918a7.489,7.489,0,0,1-1.076-.412Zm12.42,2.6a.647.647,0,0,0-.571-.008,7.718,7.718,0,0,1-3.293.733c-3.925,0-7.119-2.9-7.119-6.472s3.194-6.472,7.119-6.472,7.119,2.9,7.119,6.472a6.035,6.035,0,0,1-1.31,3.742.647.647,0,0,0-.107.595l.891,2.8Z" fill="#97aabd"/>
    <circle id="Ellipse_619" data-name="Ellipse 619" cx="0.647" cy="0.647" r="0.647" transform="translate(10.398 40.708)" fill="#97aabd"/>
    <circle id="Ellipse_620" data-name="Ellipse 620" cx="0.647" cy="0.647" r="0.647" transform="translate(12.986 40.708)" fill="#97aabd"/>
    <circle id="Ellipse_621" data-name="Ellipse 621" cx="0.647" cy="0.647" r="0.647" transform="translate(15.575 40.708)" fill="#97aabd"/>
  </g>
</svg>
