<svg xmlns="http://www.w3.org/2000/svg" width="24" height="24" viewBox="0 0 24 24">
  <g id="Button" transform="translate(-259 -126)">
    <g id="Icon_-_Calling" data-name="Icon - Calling" transform="translate(258.8 125.8)">
      <rect id="Icon_-_Calling-2" data-name="Icon - Calling" width="24" height="24" transform="translate(0.2 0.2)" fill="rgba(0,0,0,0)"/>
      <path id="Union" d="M5.684,14.32C-2.993,5.644.761,3.172,1.075,2.783c3.109-3.11,3.592-1.694,6.04.754,2.54,2.539-2.072,3.447,1.917,7.435,2.178,2.177,3.437,1.79,4.544,1.4a2.274,2.274,0,0,1,2.89.509c2.449,2.448,3.856,2.939.754,6.04A3.09,3.09,0,0,1,14.812,20C13.081,20,10.238,18.871,5.684,14.32Zm9.151-6.389h0a3.462,3.462,0,0,0-2.744-2.75.86.86,0,0,1,.327-1.689,5.175,5.175,0,0,1,4.1,4.11.858.858,0,1,1-1.683.33Zm3.455-.074a6.913,6.913,0,0,0-6.126-6.139.859.859,0,0,1-.756-.95.849.849,0,0,1,.322-.585.821.821,0,0,1,.626-.176,8.616,8.616,0,0,1,7.638,7.657.854.854,0,0,1-.181.632.843.843,0,0,1-.575.318.705.705,0,0,1-.1.006A.856.856,0,0,1,18.291,7.857Z" transform="translate(1.2 2.2)" fill="#199fca"/>
    </g>
  </g>
</svg>
