<svg id="chat" xmlns="http://www.w3.org/2000/svg" width="14.697" height="14.697" viewBox="0 0 14.697 14.697">
  <path id="Path_7668" data-name="Path 7668" d="M133.1,125.9a.5.5,0,0,1,.345.139,2.3,2.3,0,0,0,2.271.535,4.4,4.4,0,0,1-.184-3.371,5.789,5.789,0,0,0,.055-4.173,5.352,5.352,0,0,0-2.607-2.824,6.415,6.415,0,0,1-7.148,7.533,5.447,5.447,0,0,0,4.635,2.735,5.372,5.372,0,0,0,2.419-.526A.5.5,0,0,1,133.1,125.9Z" transform="translate(-121.249 -111.981)" fill="#fff"/>
  <path id="Path_7669" data-name="Path 7669" d="M5.533,0A5.435,5.435,0,0,0,0,5.4,5.37,5.37,0,0,0,.427,7.524c0,.01.008.02.011.03a4.4,4.4,0,0,1-.183,3.371,2.3,2.3,0,0,0,2.271-.535.5.5,0,0,1,.559-.091,5.365,5.365,0,0,0,2.419.526,5.374,5.374,0,0,0,5.339-5.412A5.445,5.445,0,0,0,5.533,0Zm-3,6.22a.784.784,0,1,1,.785-.784A.784.784,0,0,1,2.529,6.221Zm2.892,0a.784.784,0,1,1,.785-.784A.784.784,0,0,1,5.421,6.221Zm2.892,0A.784.784,0,1,1,9.1,5.437.784.784,0,0,1,8.313,6.221Z" transform="translate(0 0)" fill="#fff"/>
</svg>
