<svg xmlns="http://www.w3.org/2000/svg" width="46" height="46" viewBox="0 0 46 46">
  <g id="Button" transform="translate(-206.596 -722)">
    <g id="Group_15262" data-name="Group 15262">
      <circle id="Bg" cx="23" cy="23" r="23" transform="translate(206.596 722)" fill="#f9edff"/>
      <g id="Icon_-_Contact" data-name="Icon - Contact" transform="translate(219.596 735)">
        <path id="Vector" d="M8.333,0H1.667A1.672,1.672,0,0,0,0,1.667V15a1.672,1.672,0,0,0,1.667,1.667h10A1.672,1.672,0,0,0,13.333,15V5ZM6.667,6.667A1.667,1.667,0,1,1,5,8.333,1.672,1.672,0,0,1,6.667,6.667ZM10,13.333H3.333v-.475A1.676,1.676,0,0,1,4.35,11.317a5.794,5.794,0,0,1,4.633,0A1.676,1.676,0,0,1,10,12.858Z" transform="translate(3.333 1.667)" fill="#6e24fb"/>
      </g>
    </g>
  </g>
</svg>
