<svg xmlns="http://www.w3.org/2000/svg" width="28" height="28" viewBox="0 0 28 28">
  <g id="Group_24303" data-name="Group 24303" transform="translate(-27 -325)">
    <circle id="Ellipse_615" data-name="Ellipse 615" cx="14" cy="14" r="14" transform="translate(27 325)" fill="#fd3f84" opacity="0.093"/>
    <g id="XMLID_2_" transform="translate(9.914 332.087)">
      <g id="Group_15142" data-name="Group 15142" transform="translate(25.274)">
        <g id="Group_15141" data-name="Group 15141" transform="translate(0)">
          <path id="Path_7737" data-name="Path 7737" d="M35.381,280.829a3.022,3.022,0,0,1-2.446,1.248H31.525a1.126,1.126,0,0,1-1.058-.742,3.576,3.576,0,0,1-.569-.225,3.834,3.834,0,0,1-1.063-.787,4.54,4.54,0,0,0-3.56,4.432v.284a.706.706,0,0,0,.706.706H36.937a.706.706,0,0,0,.706-.706v-.284A4.536,4.536,0,0,0,35.381,280.829Z" transform="translate(-25.274 -271.848)" fill="#fd3f84"/>
          <path id="Path_7738" data-name="Path 7738" d="M92.412,7.019a.8.8,0,0,0,.7-.416l.011.029,0,.009A3.138,3.138,0,0,0,94.9,8.5a1.125,1.125,0,0,1,.953-.527h1.409a.789.789,0,0,0,.386-.1,1.593,1.593,0,0,0,.455-.526,4.064,4.064,0,0,0,.352-.745.808.808,0,0,0,.222.256V7.2A1.418,1.418,0,0,1,97.263,8.62H95.854a.482.482,0,1,0,0,.965h1.409A2.384,2.384,0,0,0,99.644,7.2V6.859a.8.8,0,0,0,.322-.643V4.2a.8.8,0,0,0-.334-.652,3.857,3.857,0,0,0-7.69,0,.8.8,0,0,0-.334.652V6.215A.8.8,0,0,0,92.412,7.019ZM95.787.965a2.9,2.9,0,0,1,2.878,2.606.807.807,0,0,0-.226.279,2.753,2.753,0,0,0-5.3,0l0,0a.807.807,0,0,0-.226-.279A2.9,2.9,0,0,1,95.787.965Z" transform="translate(-89.603)" fill="#fd3f84"/>
        </g>
      </g>
    </g>
  </g>
</svg>
