<svg xmlns="http://www.w3.org/2000/svg" width="19.952" height="11.085" viewBox="0 0 19.952 11.085">
  <g id="Group_14737" data-name="Group 14737" transform="translate(-35.258 -291.73)">
    <path id="Path_7433" data-name="Path 7433" d="M12424.526,292.266h3.028v.7l-8.584,5.674H12418l-4.939-4.541-1.27-1.133v-.7Z" transform="translate(-12373.24 -0.147)" fill="#1cadd3"/>
    <g id="email_1_" data-name="email (1)" transform="translate(35.258 291.73)">
      <path id="Path_7431" data-name="Path 7431" d="M10.673,22.946h14.56a.542.542,0,0,1,.187.035l-.016.009-8.756,5.467-5.873-5.41Zm-3.59-.913a.457.457,0,1,0,0,.913h2.29l.759.755.012.012,6.137,5.654a.463.463,0,0,0,.558.052L25.5,24.012l-1.318,7.812c-.041.24-.153.381-.4.381H9.414a.566.566,0,0,1-.334-.116c-.072-.062-.073-.085-.069-.114l.275-1.632a.458.458,0,0,0-.452-.532H7.08a.457.457,0,1,0,0,.914h1.21l-.186,1.1a1.053,1.053,0,0,0,.38.96,1.424,1.424,0,0,0,.93.334H23.775a1.357,1.357,0,0,0,1.312-1.143l1.457-8.648a1.051,1.051,0,0,0-.378-.96,1.424,1.424,0,0,0-.932-.334H7.083Z" transform="translate(-6.604 -22.033)" fill="#20154b"/>
      <path id="Path_7432" data-name="Path 7432" d="M7.079,34.277a.457.457,0,1,0,0,.913H9.088l-.4,2.364a.459.459,0,1,0,.905.152l.489-2.9a.456.456,0,0,0-.454-.531H7.079Z" transform="translate(-6.608 -31.215)" fill="#20154b"/>
    </g>
  </g>
</svg>
