<svg xmlns="http://www.w3.org/2000/svg" width="28" height="28" viewBox="0 0 28 28">
  <g id="Group_15235" data-name="Group 15235" transform="translate(-27 -325)">
    <circle id="Ellipse_615" data-name="Ellipse 615" cx="14" cy="14" r="14" transform="translate(27 325)" fill="#fd3f84" opacity="0.093"/>
    <path id="heart" d="M13.031,1.232A3.806,3.806,0,0,0,10.2,0,3.561,3.561,0,0,0,7.976.768a4.55,4.55,0,0,0-.9.939,4.548,4.548,0,0,0-.9-.939A3.56,3.56,0,0,0,3.954,0,3.806,3.806,0,0,0,1.123,1.232,4.424,4.424,0,0,0,0,4.254,5.268,5.268,0,0,0,1.4,7.7,29.933,29.933,0,0,0,4.918,11c.487.415,1.039.885,1.612,1.386a.831.831,0,0,0,1.094,0c.573-.5,1.125-.972,1.612-1.387A29.919,29.919,0,0,0,12.75,7.7a5.268,5.268,0,0,0,1.4-3.448A4.424,4.424,0,0,0,13.031,1.232Zm0,0" transform="translate(34 332.875)" fill="#fd3f84"/>
  </g>
</svg>
