<svg xmlns="http://www.w3.org/2000/svg" xmlns:xlink="http://www.w3.org/1999/xlink" width="70" height="70" viewBox="0 0 70 70">
  <defs>
    <filter id="Path_7720" x="0" y="0" width="70" height="70" filterUnits="userSpaceOnUse">
      <feOffset input="SourceAlpha"/>
      <feGaussianBlur stdDeviation="4" result="blur"/>
      <feFlood flood-color="#868686" flood-opacity="0.325"/>
      <feComposite operator="in" in2="blur"/>
      <feComposite in="SourceGraphic"/>
    </filter>
  </defs>
  <g id="Group_15068" data-name="Group 15068" transform="translate(-310 -539)">
    <g transform="matrix(1, 0, 0, 1, 310, 539)" filter="url(#Path_7720)">
      <path id="Path_7720-2" data-name="Path 7720" d="M23,0A23,23,0,1,1,0,23,23,23,0,0,1,23,0Z" transform="translate(12 12)" fill="#199fca"/>
    </g>
    <path id="filter_2_" data-name="filter (2)" d="M20.5,0H1.4A.9.9,0,0,0,.6.487a.91.91,0,0,0,.071.947l7,9.861.007.01a2,2,0,0,1,.393,1.187v8.04a.894.894,0,0,0,.894.9.921.921,0,0,0,.353-.071l3.934-1.5a.852.852,0,0,0,.586-.841V12.493a2,2,0,0,1,.392-1.187l.007-.01,7-9.862A.909.909,0,0,0,21.3.487.9.9,0,0,0,20.5,0ZM13.349,10.661a3.1,3.1,0,0,0-.6,1.831v6.4l-3.59,1.369V12.493a3.1,3.1,0,0,0-.6-1.831l-6.8-9.574h18.39Zm0,0" transform="translate(334.505 563)" fill="#fff"/>
  </g>
</svg>
