<svg id="Group_10826" data-name="Group 10826" xmlns="http://www.w3.org/2000/svg" width="15.777" height="15.777" viewBox="0 0 15.777 15.777">
  <path id="Path_16183" data-name="Path 16183" d="M3.5,143.542l-.549,2.05-2.007.043a7.9,7.9,0,0,1-.058-7.366h0l1.787.328.783,1.776a4.709,4.709,0,0,0,.044,3.17Z" transform="translate(0 -134.007)" fill="#fbbb00"/>
  <path id="Path_16184" data-name="Path 16184" d="M269.2,208.176a7.885,7.885,0,0,1-2.812,7.625h0l-2.251-.115-.319-1.989a4.7,4.7,0,0,0,2.023-2.4h-4.218v-3.121H269.2Z" transform="translate(-253.564 -201.761)" fill="#518ef8"/>
  <path id="Path_16185" data-name="Path 16185" d="M42.4,313.914h0A7.891,7.891,0,0,1,30.509,311.5l2.556-2.093a4.692,4.692,0,0,0,6.761,2.4Z" transform="translate(-29.569 -299.874)" fill="#28b446"/>
  <path id="Path_16186" data-name="Path 16186" d="M40.666,1.816,38.11,3.908a4.691,4.691,0,0,0-6.916,2.456l-2.57-2.1h0A7.89,7.89,0,0,1,40.666,1.816Z" transform="translate(-27.742)" fill="#f14336"/>
</svg>
