<svg xmlns="http://www.w3.org/2000/svg" width="19.953" height="21.061" viewBox="0 0 19.953 21.061">
  <g id="Group_22741" data-name="Group 22741" transform="translate(-30.833 -614.031)">
    <g id="Home" transform="translate(31.333 614.642)">
      <path id="Home-2" data-name="Home" d="M6.641,18.725V15.665a1.423,1.423,0,0,1,1.42-1.416H10.94a1.423,1.423,0,0,1,1.43,1.416h0v3.069a1.222,1.222,0,0,0,1.2,1.216h1.919a3.447,3.447,0,0,0,3.464-3.43h0v-8.7a2.433,2.433,0,0,0-.96-1.9L11.429.684a3.172,3.172,0,0,0-3.934,0L.96,5.928A2.414,2.414,0,0,0,0,7.828V16.52a3.447,3.447,0,0,0,3.464,3.43H5.383a1.232,1.232,0,0,0,1.238-1.226h0" transform="translate(0 0)" fill="none" stroke="#a0a0a0" stroke-linecap="round" stroke-linejoin="round" stroke-width="1"/>
    </g>
  </g>
</svg>
