<svg xmlns="http://www.w3.org/2000/svg" width="28" height="28" viewBox="0 0 28 28">
  <g id="Group_24306" data-name="Group 24306" transform="translate(-27 -530)">
    <circle id="Ellipse_618" data-name="Ellipse 618" cx="14" cy="14" r="14" transform="translate(27 530)" fill="#e7674f" opacity="0.093"/>
    <g id="global" transform="translate(32.991 535.744)">
      <g id="Group_15145" data-name="Group 15145" transform="translate(8.462 0.256)">
        <g id="Group_15144" data-name="Group 15144">
          <path id="Path_7744" data-name="Path 7744" d="M260.113.256a15.671,15.671,0,0,1,2.039,4.158,8.983,8.983,0,0,0,3.057-1.071l.278-.172A7.756,7.756,0,0,0,260.113.256Z" transform="translate(-260.113 -0.256)" fill="#e7674f"/>
        </g>
      </g>
      <g id="Group_15147" data-name="Group 15147" transform="translate(5.541 5.661)">
        <g id="Group_15146" data-name="Group 15146" transform="translate(0 0)">
          <path id="Path_7745" data-name="Path 7745" d="M174.473,166.4a17.058,17.058,0,0,1-3.886,0,10.6,10.6,0,0,0-.261,1.777h4.408A10.6,10.6,0,0,0,174.473,166.4Z" transform="translate(-170.326 -166.4)" fill="#e7674f"/>
        </g>
      </g>
      <g id="Group_15149" data-name="Group 15149" transform="translate(6.107 11.324)">
        <g id="Group_15148" data-name="Group 15148">
          <path id="Path_7746" data-name="Path 7746" d="M189.371,340.48a16.113,16.113,0,0,0-1.638.085,14.9,14.9,0,0,0,1.638,3.392,14.905,14.905,0,0,0,1.638-3.392A16.113,16.113,0,0,0,189.371,340.48Z" transform="translate(-187.733 -340.48)" fill="#e7674f"/>
        </g>
      </g>
      <g id="Group_15151" data-name="Group 15151" transform="translate(10.79 8.548)">
        <g id="Group_15150" data-name="Group 15150">
          <path id="Path_7747" data-name="Path 7747" d="M331.955,255.147a11.76,11.76,0,0,1-.265,1.947,9.938,9.938,0,0,1,3.356,1.206l.314.2a7.721,7.721,0,0,0,1.03-3.348Z" transform="translate(-331.69 -255.147)" fill="#e7674f"/>
        </g>
      </g>
      <g id="Group_15153" data-name="Group 15153" transform="translate(10.79 4.09)">
        <g id="Group_15152" data-name="Group 15152">
          <path id="Path_7748" data-name="Path 7748" d="M335.359,118.118l-.314.2a9.938,9.938,0,0,1-3.356,1.209,11.759,11.759,0,0,1,.265,1.943h4.435A7.721,7.721,0,0,0,335.359,118.118Z" transform="translate(-331.69 -118.118)" fill="#e7674f"/>
        </g>
      </g>
      <g id="Group_15155" data-name="Group 15155" transform="translate(5.541 8.548)">
        <g id="Group_15154" data-name="Group 15154" transform="translate(0 0)">
          <path id="Path_7749" data-name="Path 7749" d="M170.325,255.147a10.6,10.6,0,0,0,.262,1.777,17.119,17.119,0,0,1,3.886,0,10.6,10.6,0,0,0,.26-1.777Z" transform="translate(-170.325 -255.147)" fill="#e7674f"/>
        </g>
      </g>
      <g id="Group_15157" data-name="Group 15157" transform="translate(0 4.09)">
        <g id="Group_15156" data-name="Group 15156">
          <path id="Path_7750" data-name="Path 7750" d="M1.344,118.313l-.314-.2A7.722,7.722,0,0,0,0,121.465H4.435a11.76,11.76,0,0,1,.265-1.943A9.938,9.938,0,0,1,1.344,118.313Z" transform="translate(0 -118.118)" fill="#e7674f"/>
        </g>
      </g>
      <g id="Group_15159" data-name="Group 15159" transform="translate(1.654 11.572)">
        <g id="Group_15158" data-name="Group 15158">
          <path id="Path_7751" data-name="Path 7751" d="M54.177,348.109a8.992,8.992,0,0,0-3.057,1.07l-.278.173a7.753,7.753,0,0,0,5.374,2.914A15.657,15.657,0,0,1,54.177,348.109Z" transform="translate(-50.842 -348.109)" fill="#e7674f"/>
        </g>
      </g>
      <g id="Group_15161" data-name="Group 15161" transform="translate(6.107 1.185)">
        <g id="Group_15160" data-name="Group 15160">
          <path id="Path_7752" data-name="Path 7752" d="M189.371,28.826a14.909,14.909,0,0,0-1.638,3.391,15.834,15.834,0,0,0,3.276,0A14.91,14.91,0,0,0,189.371,28.826Z" transform="translate(-187.733 -28.826)" fill="#e7674f"/>
        </g>
      </g>
      <g id="Group_15163" data-name="Group 15163" transform="translate(8.46 11.572)">
        <g id="Group_15162" data-name="Group 15162">
          <path id="Path_7753" data-name="Path 7753" d="M265.16,349.178a8.993,8.993,0,0,0-3.057-1.07,15.655,15.655,0,0,1-2.041,4.157,7.753,7.753,0,0,0,5.374-2.914Z" transform="translate(-260.062 -348.108)" fill="#e7674f"/>
        </g>
      </g>
      <g id="Group_15165" data-name="Group 15165" transform="translate(1.656 0.256)">
        <g id="Group_15164" data-name="Group 15164" transform="translate(0 0)">
          <path id="Path_7754" data-name="Path 7754" d="M50.893,3.172l.276.172a8.984,8.984,0,0,0,3.057,1.071A15.669,15.669,0,0,1,56.267.257,7.756,7.756,0,0,0,50.893,3.172Z" transform="translate(-50.893 -0.257)" fill="#e7674f"/>
        </g>
      </g>
      <g id="Group_15167" data-name="Group 15167" transform="translate(0 8.548)">
        <g id="Group_15166" data-name="Group 15166" transform="translate(0 0)">
          <path id="Path_7755" data-name="Path 7755" d="M4.435,255.147H0a7.72,7.72,0,0,0,1.03,3.348l.314-.2A9.939,9.939,0,0,1,4.7,257.094,11.753,11.753,0,0,1,4.435,255.147Z" transform="translate(0 -255.147)" fill="#e7674f"/>
        </g>
      </g>
    </g>
  </g>
</svg>
