<svg xmlns="http://www.w3.org/2000/svg" width="205.086" height="102.665" viewBox="0 0 205.086 102.665">
  <g id="Group_14818" data-name="Group 14818" transform="translate(-108.834 -73.909)">
    <g id="Group_14806" data-name="Group 14806" transform="translate(155.204 163.39)">
      <path id="Path_7527" data-name="Path 7527" d="M242.5,318.586a.785.785,0,0,0,.324.677,1.469,1.469,0,0,0,.883.236h.25a.568.568,0,0,1,.442.162.809.809,0,0,1,.147.545.925.925,0,0,1-.139.589.564.564,0,0,1-.45.162,3.167,3.167,0,0,1-.986-.14,1.185,1.185,0,0,1-.678-.611,1.132,1.132,0,0,1-.618.589,3.131,3.131,0,0,1-1.119.162h-7.17a1.693,1.693,0,0,1-1.325-.449,2.083,2.083,0,0,1-.4-1.406v-3.165a.13.13,0,0,1,.147-.147h1.354a.13.13,0,0,1,.147.147v2.783q0,.53.279.655a2.7,2.7,0,0,0,.987.125h5.536a.889.889,0,0,0,.4-.074.474.474,0,0,0,.213-.236,1.215,1.215,0,0,0,.089-.427q.014-.266.015-.648v-7.023a.13.13,0,0,1,.147-.147h1.369a.13.13,0,0,1,.148.147Zm-5.227-4.166h.25a.847.847,0,0,1,.7.265,1.306,1.306,0,0,1,.213.824v.28a1.138,1.138,0,0,1-.206.795.91.91,0,0,1-.663.206h-1.737a.13.13,0,0,1-.148-.147V316.2a.13.13,0,0,1,.148-.147h1.487c.127,0,.208-.025.243-.074a.418.418,0,0,0,.052-.236.791.791,0,0,0-.1-.493.723.723,0,0,0-.464-.1h-.692a.182.182,0,0,1-.206-.206v-.339a.245.245,0,0,1,.037-.133.467.467,0,0,1,.066-.088l1.134-1.34c.079-.1.157-.108.236-.029l.368.324c.049.049.068.088.059.118a.674.674,0,0,1-.059.118Z" transform="translate(-231.667 -310.945)" fill="#322763"/>
      <path id="Path_7528" data-name="Path 7528" d="M263.26,327.389a.619.619,0,0,1-.441-.14.741.741,0,0,1-.147-.538.99.99,0,0,1,.14-.6.538.538,0,0,1,.449-.177h.957a.737.737,0,0,0,.537-.169.861.861,0,0,0,.17-.611v-3.725a.13.13,0,0,1,.147-.147h1.369a.13.13,0,0,1,.148.147v4.108a2.083,2.083,0,0,1-.4,1.406,1.693,1.693,0,0,1-1.325.449Z" transform="translate(-250.968 -317.378)" fill="#322763"/>
      <rect id="Rectangle_6564" data-name="Rectangle 6564" width="1.531" height="1.561" rx="0.391" transform="translate(12.378 12.047) rotate(-45)" fill="#322763"/>
      <path id="Rectangle_6565" data-name="Rectangle 6565" d="M.391,0h.781a.39.39,0,0,1,.39.39v.752a.39.39,0,0,1-.39.39H.391A.391.391,0,0,1,0,1.14V.391A.391.391,0,0,1,.391,0Z" transform="translate(14.292 12.068) rotate(-45)" fill="#322763"/>
      <path id="Path_7529" data-name="Path 7529" d="M278.574,322.049a.13.13,0,0,1-.147-.147v-1.178a.13.13,0,0,1,.147-.147h2.238a2.939,2.939,0,0,1,1.965.618,2.51,2.51,0,0,1,.729,2.017V324.6a.77.77,0,0,0,.324.662,1.471,1.471,0,0,0,.884.236h.25a.568.568,0,0,1,.442.162.806.806,0,0,1,.147.545.924.924,0,0,1-.14.589.562.562,0,0,1-.449.162,3.141,3.141,0,0,1-1.068-.162,1.254,1.254,0,0,1-.7-.677,1.394,1.394,0,0,1-.758.67,3.744,3.744,0,0,1-1.229.169h-3.3a.13.13,0,0,1-.147-.147v-1.163a.13.13,0,0,1,.147-.147h2.738a2.715,2.715,0,0,0,.633-.059.691.691,0,0,0,.36-.2.7.7,0,0,0,.162-.361,3.441,3.441,0,0,0,.037-.545v-.986a1.206,1.206,0,0,0-.375-.987,1.743,1.743,0,0,0-1.126-.309Z" transform="translate(-260.363 -316.941)" fill="#322763"/>
      <path id="Path_7530" data-name="Path 7530" d="M295.6,327.389a.62.62,0,0,1-.442-.14.743.743,0,0,1-.147-.538.99.99,0,0,1,.14-.6.537.537,0,0,1,.449-.177h11.9a.739.739,0,0,0,.538-.169.861.861,0,0,0,.169-.611v-3.725a.13.13,0,0,1,.147-.147h1.369a.13.13,0,0,1,.147.147v4.108a2.081,2.081,0,0,1-.4,1.406,1.693,1.693,0,0,1-1.325.449Z" transform="translate(-271.102 -317.378)" fill="#322763"/>
      <rect id="Rectangle_6566" data-name="Rectangle 6566" width="1.531" height="1.561" rx="0.391" transform="translate(35.532 12.047) rotate(-45)" fill="#322763"/>
      <path id="Rectangle_6567" data-name="Rectangle 6567" d="M.391,0h.78a.391.391,0,0,1,.391.391v.751a.39.39,0,0,1-.39.39H.391A.391.391,0,0,1,0,1.14V.391A.391.391,0,0,1,.391,0Z" transform="translate(37.446 12.068) rotate(-45)" fill="#322763"/>
      <path id="Path_7531" data-name="Path 7531" d="M339.4,340.121a.932.932,0,0,1-.1-.237,1.017,1.017,0,0,1-.041-.291,1.034,1.034,0,0,1,.05-.314.783.783,0,0,1,.168-.292.886.886,0,0,1,.3-.214,1.221,1.221,0,0,1,.9.009.814.814,0,0,1,.319.246c.024.036.024.067,0,.091l-.237.219c-.024.024-.042.036-.054.036a.052.052,0,0,1-.036-.018.579.579,0,0,0-.437-.21.417.417,0,0,0-.328.132.466.466,0,0,0-.119.323.52.52,0,0,0,.1.314.913.913,0,0,0,.2.2H341c.036,0,.055.021.055.064v.328c0,.042-.018.064-.055.064h-1.93c-.036,0-.054-.022-.054-.064v-.328c0-.043.018-.064.054-.064Z" transform="translate(-298.489 -328.217)" fill="#322763"/>
      <path id="Rectangle_6568" data-name="Rectangle 6568" d="M.39,0h.884a.39.39,0,0,1,.39.39V9.622a.39.39,0,0,1-.39.39H.391A.391.391,0,0,1,0,9.621V.39A.39.39,0,0,1,.39,0Z" transform="translate(40.777)" fill="#322763"/>
      <path id="Path_7532" data-name="Path 7532" d="M372.3,324.7a.13.13,0,0,1,.147-.148h1.369a.131.131,0,0,1,.148.148v2.355a.78.78,0,0,0,.331.677,1.506,1.506,0,0,0,.891.236h.162a.568.568,0,0,1,.442.162.807.807,0,0,1,.147.545.922.922,0,0,1-.14.589.562.562,0,0,1-.449.162,3.191,3.191,0,0,1-.788-.088,1.136,1.136,0,0,1-.6-.383v.162a3.893,3.893,0,0,1-.258,1.472,2.755,2.755,0,0,1-.736,1.052,3.111,3.111,0,0,1-1.141.626,4.939,4.939,0,0,1-1.472.206,4.76,4.76,0,0,1-1.436-.206,3.187,3.187,0,0,1-1.141-.626,2.852,2.852,0,0,1-.758-1.052,3.742,3.742,0,0,1-.273-1.487,5.269,5.269,0,0,1,.25-1.59,5.725,5.725,0,0,1,.618-1.369q.074-.132.221-.029l1.193.471c.049.02.076.047.081.081a.19.19,0,0,1-.022.111,7.1,7.1,0,0,0-.449.964,3.343,3.343,0,0,0-.213,1.215,2.256,2.256,0,0,0,.184.965,1.772,1.772,0,0,0,.471.626,1.707,1.707,0,0,0,.64.331,2.642,2.642,0,0,0,.692.1,2.017,2.017,0,0,0,1.362-.449,1.815,1.815,0,0,0,.522-1.45Z" transform="translate(-315.755 -319.417)" fill="#322763"/>
      <path id="Rectangle_6569" data-name="Rectangle 6569" d="M.391,0h.927a.391.391,0,0,1,.391.391v.78a.39.39,0,0,1-.39.39H.39A.39.39,0,0,1,0,1.171V.391A.391.391,0,0,1,.391,0Z" transform="translate(53.857 3.674) rotate(-45)" fill="#322763"/>
      <path id="Path_7533" data-name="Path 7533" d="M391.869,326.639a1.129,1.129,0,0,1-.626.589,3.19,3.19,0,0,1-1.126.162h-1.369a.619.619,0,0,1-.442-.14.767.767,0,0,1-.148-.552.956.956,0,0,1,.14-.6.549.549,0,0,1,.449-.169h.957a.826.826,0,0,0,.4-.081.479.479,0,0,0,.206-.25,1.434,1.434,0,0,0,.081-.442q.015-.273.014-.67v-3.062a.115.115,0,0,1,.081-.118.49.49,0,0,1,.169-.029h1.266a.13.13,0,0,1,.147.147v3.592a.78.78,0,0,0,.331.677,1.507,1.507,0,0,0,.891.236h.25a.569.569,0,0,1,.442.162.8.8,0,0,1,.147.545.921.921,0,0,1-.14.589.561.561,0,0,1-.449.162,3.219,3.219,0,0,1-1-.14A1.184,1.184,0,0,1,391.869,326.639Z" transform="translate(-329.083 -317.378)" fill="#322763"/>
      <path id="Rectangle_6570" data-name="Rectangle 6570" d="M.391,0h.75a.391.391,0,0,1,.391.391v.781a.39.39,0,0,1-.39.39H.391A.391.391,0,0,1,0,1.17V.391A.391.391,0,0,1,.391,0Z" transform="translate(60.015 12.047) rotate(-45)" fill="#322763"/>
      <rect id="Rectangle_6571" data-name="Rectangle 6571" width="1.531" height="1.561" rx="0.391" transform="translate(61.929 12.047) rotate(-45)" fill="#322763"/>
      <path id="Path_7534" data-name="Path 7534" d="M401.463,327.389a.773.773,0,0,1-.442-.1.476.476,0,0,1-.147-.412,1.478,1.478,0,0,1,.14-.655.469.469,0,0,1,.449-.287h.721a.739.739,0,0,0,.538-.169.861.861,0,0,0,.169-.611v-3.725a.13.13,0,0,1,.147-.147h1.369a.13.13,0,0,1,.147.147v4.108a2.084,2.084,0,0,1-.4,1.406,1.694,1.694,0,0,1-1.325.449Z" transform="translate(-336.998 -317.378)" fill="#322763"/>
      <path id="Rectangle_6572" data-name="Rectangle 6572" d="M.391,0h.928a.39.39,0,0,1,.39.39v.78a.391.391,0,0,1-.391.391H.391A.391.391,0,0,1,0,1.17V.391A.391.391,0,0,1,.391,0Z" transform="translate(65.312 12.08) rotate(-45)" fill="#322763"/>
      <path id="Path_7535" data-name="Path 7535" d="M503.711,320.956a.619.619,0,0,1-.442-.14.794.794,0,0,1-.147-.567c0-.275,1.536-.468,1.629-.581a.55.55,0,0,1,.449-.169h1.846a.739.739,0,0,0,.538-.169.861.861,0,0,0,.169-.611v-7.626a.13.13,0,0,1,.147-.147h1.369a.13.13,0,0,1,.147.147V319.1a2.081,2.081,0,0,1-.4,1.406,1.693,1.693,0,0,1-1.325.449Z" transform="translate(-400.647 -310.945)" fill="#322763"/>
      <path id="Path_7536" data-name="Path 7536" d="M526.529,320.809a.13.13,0,0,1-.148.147h-1.369a.13.13,0,0,1-.147-.147v-9.717a.13.13,0,0,1,.147-.147h1.369a.13.13,0,0,1,.148.147Z" transform="translate(-414.182 -310.945)" fill="#322763"/>
      <g id="Group_14805" data-name="Group 14805" transform="translate(72.629 1.316)">
        <path id="Path_7537" data-name="Path 7537" d="M425.357,329.688a.135.135,0,0,1-.153-.153v-.884a.135.135,0,0,1,.153-.153h1.83a2.186,2.186,0,0,0,.564-.069,1.14,1.14,0,0,0,.45-.229,1.041,1.041,0,0,0,.3-.442,2.027,2.027,0,0,0,.107-.709v-.4h-1.632a4.279,4.279,0,0,1-1.212-.16,2.147,2.147,0,0,1-1.5-1.472,4.678,4.678,0,0,1-.2-1.464,4.426,4.426,0,0,1,.236-1.517,2.993,2.993,0,0,1,.641-1.068,2.577,2.577,0,0,1,.938-.625,3.111,3.111,0,0,1,1.128-.206,2.818,2.818,0,0,1,2.119.785,3.553,3.553,0,0,1,.762,2.539v2h1.052a.693.693,0,0,1,.457.13.545.545,0,0,1,.152.435q0,.4-.145.511a.753.753,0,0,1-.465.114h-1.052v.366a3.458,3.458,0,0,1-.191,1.22,2.044,2.044,0,0,1-1.365,1.3,3.62,3.62,0,0,1-1.083.153ZM427,321.333a1.43,1.43,0,0,0-1.212.61,2.659,2.659,0,0,0-.45,1.616,2.025,2.025,0,0,0,.435,1.494,1.807,1.807,0,0,0,1.288.411h1.54v-2a2.824,2.824,0,0,0-.374-1.57A1.362,1.362,0,0,0,427,321.333Z" transform="translate(-424.061 -317.986)" fill="#322763"/>
        <path id="Path_7538" data-name="Path 7538" d="M441.594,327.106a.8.8,0,0,1-.457-.107.493.493,0,0,1-.153-.427.711.711,0,0,1,.145-.518.661.661,0,0,1,.465-.137h1.037a.761.761,0,0,0,.556-.175.891.891,0,0,0,.176-.633v-4.086a.135.135,0,0,1,.152-.153h.976a.135.135,0,0,1,.153.153v3.858a.884.884,0,0,0,.373.778,1.721,1.721,0,0,0,1,.259h.183a.693.693,0,0,1,.458.129.545.545,0,0,1,.152.435q0,.4-.145.511a.753.753,0,0,1-.465.114h-.335a1.763,1.763,0,0,1-.854-.2,1.333,1.333,0,0,1-.564-.595,1.579,1.579,0,0,1-1.585.793Z" transform="translate(-434.596 -318.439)" fill="#322763"/>
        <rect id="Rectangle_6573" data-name="Rectangle 6573" width="1.342" height="1.418" rx="0.404" transform="translate(7.318 10.768) rotate(-45)" fill="#322763"/>
        <rect id="Rectangle_6574" data-name="Rectangle 6574" width="1.342" height="1.418" rx="0.404" transform="translate(9.179 10.767) rotate(-45)" fill="#322763"/>
        <path id="Path_7539" data-name="Path 7539" d="M459.6,314.483l-.733.733a.134.134,0,0,0,0,.216l.787.788a.135.135,0,0,0,.216,0l.733-.733a.135.135,0,0,0,0-.216l-.788-.788A.135.135,0,0,0,459.6,314.483Z" transform="translate(-445.696 -314.429)" fill="#322763"/>
        <path id="Path_7540" data-name="Path 7540" d="M474.44,320.928a3.289,3.289,0,0,0-4.269,0,3.5,3.5,0,0,0-.777,2.537v.313a2.939,2.939,0,0,0,.014.3,2.286,2.286,0,0,1-.083.665,1.235,1.235,0,0,1-.222.427.8.8,0,0,1-.3.228.864.864,0,0,1-.336.069c-1.943,0-3.885-.032-5.828-.025-1.224,0-2.448.014-3.672.023h-.543a1.72,1.72,0,0,1-1-.26.881.881,0,0,1-.374-.777v-3.858a.135.135,0,0,0-.152-.153h-.976a.135.135,0,0,0-.152.153v4.086a.9.9,0,0,1-.175.634.768.768,0,0,1-.557.175h-.96a.66.66,0,0,0-.466.136.706.706,0,0,0-.144.518.493.493,0,0,0,.152.427.8.8,0,0,0,.457.108h1.189a1.58,1.58,0,0,0,1.586-.793,1.329,1.329,0,0,0,.563.594,1.767,1.767,0,0,0,.854.2h.467l.3,0,.444,0c1.945.013,3.891.017,5.837.023.677,0,1.354-.007,2.031-.017a8.284,8.284,0,0,0,1.94-.142,1.381,1.381,0,0,0,.823-.618,2.251,2.251,0,0,0,.931.649,3.565,3.565,0,0,0,1.264.2,3.662,3.662,0,0,0,1.212-.189,2.272,2.272,0,0,0,.915-.588,2.667,2.667,0,0,0,.579-1.023,4.77,4.77,0,0,0,.208-1.494A3.5,3.5,0,0,0,474.44,320.928Zm-.893,4.139a1.788,1.788,0,0,1-2.484,0,2.625,2.625,0,0,1-.388-1.6,2.724,2.724,0,0,1,.388-1.569,1.647,1.647,0,0,1,2.484,0,2.726,2.726,0,0,1,.39,1.569A2.626,2.626,0,0,1,473.548,325.067Z" transform="translate(-442.366 -317.985)" fill="#322763"/>
      </g>
    </g>
    <g id="Group_14807" data-name="Group 14807" transform="translate(244.576 136.245)">
      <path id="Path_7541" data-name="Path 7541" d="M470.635,256.773a.231.231,0,0,1-.261-.261V255a.231.231,0,0,1,.261-.261h3.134a3.767,3.767,0,0,0,.967-.118,1.959,1.959,0,0,0,.771-.392,1.794,1.794,0,0,0,.51-.758,3.483,3.483,0,0,0,.183-1.214v-.68h-2.8a7.318,7.318,0,0,1-2.077-.274,3.673,3.673,0,0,1-2.573-2.521,8,8,0,0,1-.339-2.508,7.578,7.578,0,0,1,.4-2.6,5.12,5.12,0,0,1,1.1-1.829,4.407,4.407,0,0,1,1.606-1.071,5.333,5.333,0,0,1,1.933-.353,4.827,4.827,0,0,1,3.631,1.346,6.086,6.086,0,0,1,1.306,4.349v3.422h1.8a1.19,1.19,0,0,1,.784.222.933.933,0,0,1,.261.744q0,.679-.248.875a1.29,1.29,0,0,1-.8.2h-1.8v.627a5.922,5.922,0,0,1-.326,2.09,3.5,3.5,0,0,1-2.338,2.22,6.215,6.215,0,0,1-1.855.261Zm2.821-14.315a2.449,2.449,0,0,0-2.077,1.045,4.556,4.556,0,0,0-.771,2.769,3.469,3.469,0,0,0,.745,2.56,3.1,3.1,0,0,0,2.207.706H476.2v-3.422a4.841,4.841,0,0,0-.64-2.691A2.335,2.335,0,0,0,473.456,242.458Z" transform="translate(-468.415 -238.5)" fill="#322763"/>
      <path id="Path_7542" data-name="Path 7542" d="M498.454,255.6a1.37,1.37,0,0,1-.784-.183.844.844,0,0,1-.261-.732,1.217,1.217,0,0,1,.248-.888,1.13,1.13,0,0,1,.8-.235h1.776a1.305,1.305,0,0,0,.954-.3,1.525,1.525,0,0,0,.3-1.084v-5.027a.231.231,0,0,1,.261-.261h1.672a.231.231,0,0,1,.261.261v4.635a1.513,1.513,0,0,0,.639,1.332,2.949,2.949,0,0,0,1.712.444h.313a1.187,1.187,0,0,1,.784.222.932.932,0,0,1,.261.745q0,.679-.248.875a1.292,1.292,0,0,1-.8.2h-.574a3.025,3.025,0,0,1-1.463-.339,2.284,2.284,0,0,1-.967-1.019,2.705,2.705,0,0,1-2.716,1.358Z" transform="translate(-486.464 -242.53)" fill="#322763"/>
      <rect id="Rectangle_6575" data-name="Rectangle 6575" width="2.299" height="2.43" rx="0.692" transform="translate(12.539 16.672) rotate(-45)" fill="#322763"/>
      <rect id="Rectangle_6576" data-name="Rectangle 6576" width="2.299" height="2.43" rx="0.692" transform="translate(15.726 16.672) rotate(-45)" fill="#322763"/>
      <path id="Path_7543" data-name="Path 7543" d="M529.308,235.427l-1.256,1.256a.231.231,0,0,0,0,.369l1.35,1.35a.231.231,0,0,0,.37,0l1.256-1.256a.231.231,0,0,0,0-.369l-1.35-1.35A.231.231,0,0,0,529.308,235.427Z" transform="translate(-505.481 -235.335)" fill="#322763"/>
      <path id="Path_7544" data-name="Path 7544" d="M554.728,241.765a5.635,5.635,0,0,0-7.314,0,6,6,0,0,0-1.331,4.347v.536a5.088,5.088,0,0,0,.024.509,3.933,3.933,0,0,1-.143,1.139,2.129,2.129,0,0,1-.38.732,1.369,1.369,0,0,1-.522.39,1.472,1.472,0,0,1-.574.118c-3.328,0-6.656-.054-9.985-.043-2.1.007-4.194.024-6.29.039l-.453,0h-.477a2.942,2.942,0,0,1-1.71-.446,1.507,1.507,0,0,1-.641-1.331v-4.617a.231.231,0,0,0-.261-.261H523a.231.231,0,0,0-.261.261v5.008a1.546,1.546,0,0,1-.3,1.087,1.319,1.319,0,0,1-.954.3h-1.644a1.131,1.131,0,0,0-.8.233,1.209,1.209,0,0,0-.247.888.843.843,0,0,0,.261.732,1.372,1.372,0,0,0,.784.185h2.037a2.706,2.706,0,0,0,2.717-1.359,2.274,2.274,0,0,0,.965,1.017,3.025,3.025,0,0,0,1.463.342h.8l.513,0,.761.005c3.333.023,6.667.03,10,.039,1.16,0,2.32-.012,3.48-.028a14.182,14.182,0,0,0,3.324-.244,2.366,2.366,0,0,0,1.411-1.059,3.853,3.853,0,0,0,1.6,1.111,6.1,6.1,0,0,0,2.166.352,6.256,6.256,0,0,0,2.076-.324,3.888,3.888,0,0,0,1.567-1.006,4.576,4.576,0,0,0,.993-1.752,8.167,8.167,0,0,0,.355-2.56A6,6,0,0,0,554.728,241.765Zm-1.529,7.091a3.063,3.063,0,0,1-4.256,0,4.5,4.5,0,0,1-.665-2.745,4.674,4.674,0,0,1,.665-2.689,2.824,2.824,0,0,1,4.256,0,4.672,4.672,0,0,1,.669,2.689A4.5,4.5,0,0,1,553.2,248.856Z" transform="translate(-499.776 -238.498)" fill="#322763"/>
    </g>
    <g id="Group_14817" data-name="Group 14817" transform="translate(108.834 73.909)">
      <g id="Group_14815" data-name="Group 14815" transform="translate(12.364 0)">
        <g id="Group_14809" data-name="Group 14809" transform="translate(0 22.316)">
          <g id="Group_14808" data-name="Group 14808">
            <path id="Path_7545" data-name="Path 7545" d="M159.366,133.023a16.935,16.935,0,0,0-12.738,5.234q-5.042,5.235-5.041,13.469,0,8.39,4.926,13.353t12.93,4.965a23.058,23.058,0,0,0,9.544-2.232v.154a10.479,10.479,0,0,1-5.7,9.89q-5.7,3.118-17.318,3.117l.521,3.8a2.086,2.086,0,0,0,2.113,1.8q26.842-.585,26.843-18.3v-18.01q0-7.773-4.464-12.507A15.246,15.246,0,0,0,159.366,133.023Zm9.621,28.862a26.012,26.012,0,0,1-8.7,1.462q-5.849.155-9.235-2.925t-3.387-9a11.6,11.6,0,0,1,3.156-8.466,10.615,10.615,0,0,1,7.927-3.233,9.607,9.607,0,0,1,7.388,3.079,11.326,11.326,0,0,1,2.848,8Z" transform="translate(-141.587 -133.023)" fill="#322763"/>
          </g>
        </g>
        <g id="Group_14811" data-name="Group 14811" transform="translate(42.022 22.316)">
          <g id="Group_14810" data-name="Group 14810">
            <path id="Path_7546" data-name="Path 7546" d="M270.683,133.023a16.936,16.936,0,0,0-12.738,5.234q-5.042,5.235-5.041,13.469,0,8.39,4.926,13.353t12.93,4.965a23.058,23.058,0,0,0,9.544-2.232v.154a10.479,10.479,0,0,1-5.7,9.89q-5.7,3.118-17.317,3.117l.521,3.8a2.086,2.086,0,0,0,2.113,1.8q26.843-.585,26.843-18.3v-18.01q0-7.773-4.464-12.507A15.247,15.247,0,0,0,270.683,133.023Zm9.621,28.862a26.011,26.011,0,0,1-8.7,1.462q-5.849.155-9.235-2.925t-3.387-9a11.6,11.6,0,0,1,3.156-8.466,10.616,10.616,0,0,1,7.927-3.233,9.608,9.608,0,0,1,7.388,3.079,11.328,11.328,0,0,1,2.848,8Z" transform="translate(-252.904 -133.023)" fill="#322763"/>
          </g>
        </g>
        <g id="Group_14813" data-name="Group 14813" transform="translate(84.044 22.008)">
          <g id="Group_14812" data-name="Group 14812">
            <path id="Path_7547" data-name="Path 7547" d="M467.895,137.249a16.769,16.769,0,0,0-12.392-5.041,17.287,17.287,0,0,0-12.814,5.08,17.488,17.488,0,0,0-5.041,12.853q0,5.31,3.463,12.468H398.084V149.756q0-7.773-4.464-12.507A15.247,15.247,0,0,0,382,132.516a16.935,16.935,0,0,0-12.738,5.234q-5.042,5.235-5.041,13.469,0,8.39,4.926,13.353t13.084,4.965h9.236q-.77,5.694-6.465,8.312t-16.394,2.617l.521,3.8a2.084,2.084,0,0,0,2.111,1.8q25.431-.555,26.769-16.527h53.34q10.081,0,15.816-5.234t5.734-14.47A17.148,17.148,0,0,0,467.895,137.249Zm-76.353,25.437q-6,.155-8.465.154-5.851,0-9.313-3.079t-3.464-8.851a11.6,11.6,0,0,1,3.156-8.466,10.615,10.615,0,0,1,7.927-3.233,9.544,9.544,0,0,1,7.35,3.04,11.385,11.385,0,0,1,2.809,8.043ZM462.43,159.3q-3.925,3.31-10.544,3.309h-4q-3.849-6.849-3.848-12.391a11.337,11.337,0,0,1,3.233-8.043,10.394,10.394,0,0,1,7.85-3.425,10.924,10.924,0,0,1,11.237,11.314Q466.355,155.991,462.43,159.3Z" transform="translate(-364.22 -132.208)" fill="#322763"/>
          </g>
        </g>
        <g id="Group_14814" data-name="Group 14814" transform="translate(162.644)">
          <path id="Path_7548" data-name="Path 7548" d="M576.5,94.818l-4.073,4.073,4.417,4.417a1.761,1.761,0,0,0,2.49,0l4.417-4.417-4.073-4.073A2.246,2.246,0,0,0,576.5,94.818Z" transform="translate(-572.431 -86.515)" fill="#009fca"/>
          <path id="Path_7549" data-name="Path 7549" d="M601.485,77.982l-4.072-4.073-4.073,4.073a2.248,2.248,0,0,0,0,3.178l4.073,4.073,4.072-4.073A2.247,2.247,0,0,0,601.485,77.982Z" transform="translate(-585.036 -73.909)" fill="#009fca"/>
          <path id="Path_7550" data-name="Path 7550" d="M615.251,94.818a2.247,2.247,0,0,0-3.178,0L608,98.89l4.417,4.417a1.761,1.761,0,0,0,2.49,0l4.417-4.417Z" transform="translate(-594.573 -86.515)" fill="#009fca"/>
        </g>
      </g>
      <g id="Group_14816" data-name="Group 14816" transform="translate(0 8.402)">
        <path id="Path_7551" data-name="Path 7551" d="M115.134,117.571c-8.278-2.131-6.019-10.365-6.019-10.365,4.513,6.06,8.192,4.138,8.192,4.138-10.073-5.852-7.723-15.179-7.723-15.179,6.071,8.168,13.875,6,13.875,6-.145,3.106,2.168,4.914,4.192,4.118s-.8-4.118-.8-4.118c8.248.647,12.125,2.975,13.276,3.814-.151,0-.3-.009-.452-.009q-10.217,0-16.251,6.16a21.26,21.26,0,0,0-6.041,15.513,26.254,26.254,0,0,0,.3,3.989c-5.68-7.576-5.146-11.216-5.146-11.216,2.006,2.173,5.6,1.5,5.393-.629S115.134,117.571,115.134,117.571Z" transform="translate(-108.834 -96.165)" fill="#009fca"/>
      </g>
    </g>
  </g>
</svg>
