<svg xmlns="http://www.w3.org/2000/svg" width="197.241" height="98.738" viewBox="0 0 197.241 98.738">
  <g id="Group_15067" data-name="Group 15067" transform="translate(-108.834 -73.909)">
    <g id="Group_14806" data-name="Group 14806" transform="translate(153.43 159.968)">
      <path id="Path_7527" data-name="Path 7527" d="M242.088,318.293a.755.755,0,0,0,.312.651,1.413,1.413,0,0,0,.849.227h.241a.547.547,0,0,1,.425.156.778.778,0,0,1,.141.524.889.889,0,0,1-.134.566.542.542,0,0,1-.432.156,3.045,3.045,0,0,1-.948-.134,1.139,1.139,0,0,1-.652-.588,1.088,1.088,0,0,1-.594.566,3.011,3.011,0,0,1-1.076.156h-6.9a1.629,1.629,0,0,1-1.274-.432,2,2,0,0,1-.382-1.352v-3.044a.125.125,0,0,1,.142-.142h1.3a.125.125,0,0,1,.142.142v2.676q0,.51.269.63a2.6,2.6,0,0,0,.949.12h5.324a.855.855,0,0,0,.389-.071.456.456,0,0,0,.205-.227,1.168,1.168,0,0,0,.085-.41q.014-.255.014-.623v-6.754a.125.125,0,0,1,.142-.141h1.316a.125.125,0,0,1,.142.141Zm-5.027-4.007h.241a.814.814,0,0,1,.673.255,1.256,1.256,0,0,1,.205.793v.269a1.094,1.094,0,0,1-.2.765.875.875,0,0,1-.637.2h-1.671a.125.125,0,0,1-.142-.142V316a.125.125,0,0,1,.142-.142h1.43q.184,0,.233-.071a.4.4,0,0,0,.05-.227.76.76,0,0,0-.092-.474.7.7,0,0,0-.446-.092h-.665a.175.175,0,0,1-.2-.2v-.326a.236.236,0,0,1,.035-.128.451.451,0,0,1,.064-.085l1.09-1.289c.076-.094.151-.1.227-.028l.354.311c.047.048.066.085.057.113a.648.648,0,0,1-.057.113Z" transform="translate(-231.667 -310.945)" fill="#fff"/>
      <path id="Path_7528" data-name="Path 7528" d="M263.238,327.156a.6.6,0,0,1-.424-.134.713.713,0,0,1-.142-.517.953.953,0,0,1,.134-.58.517.517,0,0,1,.432-.17h.921a.709.709,0,0,0,.517-.163.827.827,0,0,0,.163-.588v-3.582a.125.125,0,0,1,.141-.141H266.3a.125.125,0,0,1,.142.141v3.95a2,2,0,0,1-.383,1.352,1.629,1.629,0,0,1-1.274.432Z" transform="translate(-251.415 -317.528)" fill="#fff"/>
      <rect id="Rectangle_6564" data-name="Rectangle 6564" width="1.473" height="1.501" rx="0.391" transform="translate(11.904 11.586) rotate(-45)" fill="#fff"/>
      <path id="Rectangle_6565" data-name="Rectangle 6565" d="M.391,0h.721A.39.39,0,0,1,1.5.39v.693a.39.39,0,0,1-.39.39H.391A.391.391,0,0,1,0,1.082V.391A.391.391,0,0,1,.391,0Z" transform="translate(13.745 11.606) rotate(-45)" fill="#fff"/>
      <path id="Path_7529" data-name="Path 7529" d="M278.543,321.993a.125.125,0,0,1-.141-.142v-1.133a.125.125,0,0,1,.141-.142H280.7a2.826,2.826,0,0,1,1.89.595,2.414,2.414,0,0,1,.7,1.94v1.331a.741.741,0,0,0,.311.637,1.416,1.416,0,0,0,.85.227h.241a.547.547,0,0,1,.425.156.776.776,0,0,1,.142.524.888.888,0,0,1-.135.566.54.54,0,0,1-.432.156,3.021,3.021,0,0,1-1.027-.156,1.207,1.207,0,0,1-.673-.651,1.341,1.341,0,0,1-.729.644,3.6,3.6,0,0,1-1.182.163h-3.172a.125.125,0,0,1-.141-.142v-1.119a.125.125,0,0,1,.141-.142h2.634a2.612,2.612,0,0,0,.609-.057.665.665,0,0,0,.347-.191.674.674,0,0,0,.156-.347,3.306,3.306,0,0,0,.035-.524v-.949a1.16,1.16,0,0,0-.361-.949,1.675,1.675,0,0,0-1.083-.3Z" transform="translate(-261.029 -317.08)" fill="#fff"/>
      <path id="Path_7530" data-name="Path 7530" d="M295.582,327.156a.6.6,0,0,1-.425-.134.715.715,0,0,1-.141-.517.953.953,0,0,1,.134-.58.516.516,0,0,1,.432-.17h11.446a.71.71,0,0,0,.517-.163.828.828,0,0,0,.163-.588v-3.582a.125.125,0,0,1,.142-.141h1.317a.125.125,0,0,1,.142.141v3.95a2,2,0,0,1-.383,1.352,1.628,1.628,0,0,1-1.274.432Z" transform="translate(-272.016 -317.528)" fill="#fff"/>
      <rect id="Rectangle_6566" data-name="Rectangle 6566" width="1.473" height="1.501" rx="0.391" transform="translate(34.173 11.586) rotate(-45)" fill="#fff"/>
      <path id="Rectangle_6567" data-name="Rectangle 6567" d="M.391,0h.72A.391.391,0,0,1,1.5.391v.692a.39.39,0,0,1-.39.39H.391A.391.391,0,0,1,0,1.082V.391A.391.391,0,0,1,.391,0Z" transform="translate(36.014 11.607) rotate(-45)" fill="#fff"/>
      <path id="Path_7531" data-name="Path 7531" d="M339.388,340.067a.9.9,0,0,1-.1-.228.977.977,0,0,1-.039-.28,1,1,0,0,1,.048-.3.752.752,0,0,1,.162-.28.85.85,0,0,1,.289-.206,1.175,1.175,0,0,1,.867.009.784.784,0,0,1,.307.236.063.063,0,0,1,0,.087l-.228.21q-.035.035-.052.035a.05.05,0,0,1-.035-.017.557.557,0,0,0-.42-.2.4.4,0,0,0-.315.127.449.449,0,0,0-.114.311.5.5,0,0,0,.092.3.879.879,0,0,0,.188.2h.884c.035,0,.053.02.053.061v.315c0,.041-.018.061-.053.061h-1.856c-.035,0-.052-.021-.052-.061v-.315c0-.041.017-.061.052-.061Z" transform="translate(-300.039 -328.618)" fill="#fff"/>
      <path id="Rectangle_6568" data-name="Rectangle 6568" d="M.39,0H1.21A.39.39,0,0,1,1.6.39V9.239a.39.39,0,0,1-.39.39H.391A.391.391,0,0,1,0,9.238V.39A.39.39,0,0,1,.39,0Z" transform="translate(39.217)" fill="#fff"/>
      <path id="Path_7532" data-name="Path 7532" d="M372.087,324.7a.125.125,0,0,1,.142-.142h1.317a.126.126,0,0,1,.142.142v2.265a.75.75,0,0,0,.318.651,1.449,1.449,0,0,0,.857.227h.156a.547.547,0,0,1,.425.156.776.776,0,0,1,.141.524.887.887,0,0,1-.134.566.54.54,0,0,1-.432.156,3.067,3.067,0,0,1-.758-.085,1.093,1.093,0,0,1-.573-.368v.156a3.745,3.745,0,0,1-.248,1.416,2.651,2.651,0,0,1-.708,1.012,2.992,2.992,0,0,1-1.1.6,4.751,4.751,0,0,1-1.416.2,4.58,4.58,0,0,1-1.381-.2,3.064,3.064,0,0,1-1.1-.6,2.743,2.743,0,0,1-.729-1.012,3.6,3.6,0,0,1-.262-1.43,5.067,5.067,0,0,1,.241-1.529,5.5,5.5,0,0,1,.595-1.317q.071-.127.212-.028l1.147.453c.047.019.073.045.078.078a.182.182,0,0,1-.021.106,6.829,6.829,0,0,0-.432.927,3.216,3.216,0,0,0-.205,1.168,2.169,2.169,0,0,0,.177.928,1.7,1.7,0,0,0,.453.6,1.64,1.64,0,0,0,.616.319,2.539,2.539,0,0,0,.665.092,1.939,1.939,0,0,0,1.31-.432,1.745,1.745,0,0,0,.5-1.394Z" transform="translate(-317.706 -319.614)" fill="#fff"/>
      <path id="Rectangle_6569" data-name="Rectangle 6569" d="M.391,0h.861a.391.391,0,0,1,.391.391v.721a.39.39,0,0,1-.39.39H.39A.39.39,0,0,1,0,1.111V.391A.391.391,0,0,1,.391,0Z" transform="translate(51.797 3.533) rotate(-45)" fill="#fff"/>
      <path id="Path_7533" data-name="Path 7533" d="M391.727,326.434a1.086,1.086,0,0,1-.6.566,3.07,3.07,0,0,1-1.083.156h-1.317a.6.6,0,0,1-.425-.134.738.738,0,0,1-.142-.531.92.92,0,0,1,.135-.573.529.529,0,0,1,.432-.163h.92a.794.794,0,0,0,.389-.078.461.461,0,0,0,.2-.241,1.382,1.382,0,0,0,.078-.425q.014-.263.014-.644v-2.945a.11.11,0,0,1,.078-.113.471.471,0,0,1,.163-.028h1.218a.125.125,0,0,1,.142.141v3.455a.75.75,0,0,0,.318.651,1.449,1.449,0,0,0,.857.227h.241a.547.547,0,0,1,.425.156.774.774,0,0,1,.141.524.887.887,0,0,1-.134.566.54.54,0,0,1-.432.156,3.1,3.1,0,0,1-.963-.134A1.139,1.139,0,0,1,391.727,326.434Z" transform="translate(-331.343 -317.528)" fill="#fff"/>
      <path id="Rectangle_6570" data-name="Rectangle 6570" d="M.391,0h.691a.391.391,0,0,1,.391.391v.721a.39.39,0,0,1-.39.39H.391A.391.391,0,0,1,0,1.111V.391A.391.391,0,0,1,.391,0Z" transform="translate(57.719 11.586) rotate(-45)" fill="#fff"/>
      <rect id="Rectangle_6571" data-name="Rectangle 6571" width="1.473" height="1.501" rx="0.391" transform="translate(59.56 11.586) rotate(-45)" fill="#fff"/>
      <path id="Path_7534" data-name="Path 7534" d="M401.44,327.156a.743.743,0,0,1-.425-.1.457.457,0,0,1-.142-.4,1.422,1.422,0,0,1,.134-.63.451.451,0,0,1,.432-.276h.694a.711.711,0,0,0,.517-.163.828.828,0,0,0,.163-.588v-3.582a.125.125,0,0,1,.142-.141h1.317a.125.125,0,0,1,.142.141v3.95a2,2,0,0,1-.382,1.352,1.629,1.629,0,0,1-1.274.432Z" transform="translate(-339.441 -317.528)" fill="#fff"/>
      <path id="Rectangle_6572" data-name="Rectangle 6572" d="M.391,0h.862a.39.39,0,0,1,.39.39V1.11a.391.391,0,0,1-.391.391H.391A.391.391,0,0,1,0,1.11V.391A.391.391,0,0,1,.391,0Z" transform="translate(62.813 11.618) rotate(-45)" fill="#fff"/>
      <path id="Path_7535" data-name="Path 7535" d="M503.688,320.573a.6.6,0,0,1-.425-.134.764.764,0,0,1-.142-.545c0-.264,1.477-.451,1.567-.559a.529.529,0,0,1,.432-.163H506.9a.71.71,0,0,0,.517-.163.828.828,0,0,0,.163-.588v-7.335a.125.125,0,0,1,.142-.141h1.317a.125.125,0,0,1,.142.141v7.7a2,2,0,0,1-.383,1.352,1.629,1.629,0,0,1-1.274.432Z" transform="translate(-404.567 -310.945)" fill="#fff"/>
      <path id="Path_7536" data-name="Path 7536" d="M526.465,320.431a.125.125,0,0,1-.142.142h-1.317a.125.125,0,0,1-.142-.142v-9.345a.125.125,0,0,1,.142-.141h1.317a.125.125,0,0,1,.142.141Z" transform="translate(-418.416 -310.945)" fill="#fff"/>
      <g id="Group_14805" data-name="Group 14805" transform="translate(69.851 1.265)">
        <path id="Path_7537" data-name="Path 7537" d="M425.307,329.323a.13.13,0,0,1-.147-.147v-.85a.13.13,0,0,1,.147-.147h1.76a2.1,2.1,0,0,0,.542-.066,1.1,1.1,0,0,0,.432-.22,1,1,0,0,0,.286-.425,1.949,1.949,0,0,0,.1-.682V326.4h-1.569a4.113,4.113,0,0,1-1.166-.154,2.064,2.064,0,0,1-1.445-1.415,4.5,4.5,0,0,1-.19-1.408,4.258,4.258,0,0,1,.227-1.459,2.876,2.876,0,0,1,.616-1.027,2.478,2.478,0,0,1,.9-.6,2.992,2.992,0,0,1,1.085-.2,2.71,2.71,0,0,1,2.038.755,3.416,3.416,0,0,1,.733,2.442v1.921h1.012a.667.667,0,0,1,.44.125.524.524,0,0,1,.147.418q0,.381-.139.491a.724.724,0,0,1-.447.11h-1.012v.352a3.326,3.326,0,0,1-.183,1.173,1.965,1.965,0,0,1-1.312,1.246,3.484,3.484,0,0,1-1.041.147Zm1.584-8.036a1.375,1.375,0,0,0-1.166.586,2.557,2.557,0,0,0-.433,1.555,1.947,1.947,0,0,0,.418,1.437,1.738,1.738,0,0,0,1.239.4h1.481V323.34a2.716,2.716,0,0,0-.359-1.51A1.31,1.31,0,0,0,426.891,321.287Z" transform="translate(-424.061 -318.069)" fill="#fff"/>
        <path id="Path_7538" data-name="Path 7538" d="M441.571,326.868a.767.767,0,0,1-.44-.1.474.474,0,0,1-.147-.411.684.684,0,0,1,.139-.5.635.635,0,0,1,.448-.132h1a.731.731,0,0,0,.535-.168.857.857,0,0,0,.169-.609v-3.93a.13.13,0,0,1,.146-.147h.939a.13.13,0,0,1,.147.147v3.71a.85.85,0,0,0,.359.748,1.655,1.655,0,0,0,.961.249H446a.667.667,0,0,1,.44.125.524.524,0,0,1,.147.418q0,.381-.139.491a.724.724,0,0,1-.447.11h-.322a1.7,1.7,0,0,1-.821-.191,1.283,1.283,0,0,1-.543-.572,1.518,1.518,0,0,1-1.525.763Z" transform="translate(-434.84 -318.532)" fill="#fff"/>
        <rect id="Rectangle_6573" data-name="Rectangle 6573" width="1.291" height="1.364" rx="0.404" transform="translate(7.039 10.356) rotate(-45)" fill="#fff"/>
        <rect id="Rectangle_6574" data-name="Rectangle 6574" width="1.29" height="1.364" rx="0.404" transform="translate(8.828 10.356) rotate(-45)" fill="#fff"/>
        <path id="Path_7539" data-name="Path 7539" d="M459.573,314.481l-.705.705a.129.129,0,0,0,0,.207l.757.758a.13.13,0,0,0,.208,0l.705-.705a.13.13,0,0,0,0-.207l-.758-.758A.13.13,0,0,0,459.573,314.481Z" transform="translate(-446.198 -314.43)" fill="#fff"/>
        <path id="Path_7540" data-name="Path 7540" d="M473.638,320.9a3.163,3.163,0,0,0-4.106,0,3.365,3.365,0,0,0-.747,2.44v.3a2.836,2.836,0,0,0,.014.286,2.2,2.2,0,0,1-.08.639,1.186,1.186,0,0,1-.213.411.771.771,0,0,1-.293.219.831.831,0,0,1-.323.066c-1.868,0-3.737-.03-5.605-.024-1.177,0-2.354.013-3.531.022h-.522a1.654,1.654,0,0,1-.96-.25.847.847,0,0,1-.36-.747v-3.711a.13.13,0,0,0-.147-.147h-.939a.13.13,0,0,0-.147.147v3.93a.866.866,0,0,1-.168.61.739.739,0,0,1-.535.168h-.923a.635.635,0,0,0-.448.131.679.679,0,0,0-.139.5.474.474,0,0,0,.147.411.77.77,0,0,0,.44.1H455.2a1.519,1.519,0,0,0,1.525-.762,1.278,1.278,0,0,0,.541.571,1.7,1.7,0,0,0,.821.191h.449l.288,0,.427,0c1.871.013,3.742.017,5.614.022.651,0,1.3-.007,1.953-.016a7.968,7.968,0,0,0,1.866-.137,1.328,1.328,0,0,0,.792-.594,2.165,2.165,0,0,0,.9.624,3.429,3.429,0,0,0,1.216.2,3.521,3.521,0,0,0,1.165-.182,2.184,2.184,0,0,0,.88-.565,2.566,2.566,0,0,0,.557-.984,4.588,4.588,0,0,0,.2-1.437A3.367,3.367,0,0,0,473.638,320.9Zm-.858,3.981a1.719,1.719,0,0,1-2.389,0,2.525,2.525,0,0,1-.374-1.541,2.62,2.62,0,0,1,.374-1.509,1.584,1.584,0,0,1,2.389,0,2.622,2.622,0,0,1,.375,1.509A2.526,2.526,0,0,1,472.78,324.879Z" transform="translate(-442.79 -318.067)" fill="#fff"/>
      </g>
    </g>
    <g id="Group_14807" data-name="Group 14807" transform="translate(239.384 133.861)">
      <path id="Path_7541" data-name="Path 7541" d="M470.55,256.147a.222.222,0,0,1-.251-.251v-1.457a.222.222,0,0,1,.251-.251h3.015a3.619,3.619,0,0,0,.93-.113,1.883,1.883,0,0,0,.741-.377,1.726,1.726,0,0,0,.49-.729,3.35,3.35,0,0,0,.176-1.168v-.654h-2.688a7.038,7.038,0,0,1-2-.264,3.533,3.533,0,0,1-2.475-2.425,7.7,7.7,0,0,1-.326-2.412,7.288,7.288,0,0,1,.389-2.5,4.923,4.923,0,0,1,1.055-1.759,4.239,4.239,0,0,1,1.545-1.03,5.129,5.129,0,0,1,1.859-.339,4.642,4.642,0,0,1,3.492,1.294,5.853,5.853,0,0,1,1.256,4.183v3.291h1.734a1.144,1.144,0,0,1,.754.213.9.9,0,0,1,.251.716q0,.654-.239.842a1.242,1.242,0,0,1-.766.188h-1.734v.6a5.7,5.7,0,0,1-.314,2.01,3.368,3.368,0,0,1-2.249,2.136,5.977,5.977,0,0,1-1.784.251Zm2.713-13.768a2.355,2.355,0,0,0-2,1,4.383,4.383,0,0,0-.741,2.663,3.337,3.337,0,0,0,.716,2.462,2.977,2.977,0,0,0,2.123.679H475.9V245.9a4.657,4.657,0,0,0-.615-2.588A2.246,2.246,0,0,0,473.264,242.38Z" transform="translate(-468.415 -238.574)" fill="#fff"/>
      <path id="Path_7542" data-name="Path 7542" d="M498.414,255.271a1.317,1.317,0,0,1-.754-.176.811.811,0,0,1-.251-.7,1.17,1.17,0,0,1,.239-.854,1.087,1.087,0,0,1,.766-.226h1.708a1.255,1.255,0,0,0,.917-.289,1.467,1.467,0,0,0,.289-1.043v-4.835a.222.222,0,0,1,.251-.251h1.608a.222.222,0,0,1,.251.251V251.6a1.455,1.455,0,0,0,.615,1.281,2.836,2.836,0,0,0,1.646.427h.3a1.142,1.142,0,0,1,.754.213.9.9,0,0,1,.251.716q0,.654-.239.842a1.242,1.242,0,0,1-.766.188h-.552a2.908,2.908,0,0,1-1.407-.326,2.2,2.2,0,0,1-.93-.98,2.6,2.6,0,0,1-2.613,1.306Z" transform="translate(-486.882 -242.697)" fill="#fff"/>
      <rect id="Rectangle_6575" data-name="Rectangle 6575" width="2.211" height="2.337" rx="0.692" transform="translate(12.059 16.034) rotate(-45)" fill="#fff"/>
      <rect id="Rectangle_6576" data-name="Rectangle 6576" width="2.211" height="2.337" rx="0.692" transform="translate(15.124 16.034) rotate(-45)" fill="#fff"/>
      <path id="Path_7543" data-name="Path 7543" d="M529.256,235.424l-1.208,1.208a.222.222,0,0,0,0,.355l1.3,1.3a.222.222,0,0,0,.355,0l1.208-1.208a.222.222,0,0,0,0-.355l-1.3-1.3A.222.222,0,0,0,529.256,235.424Z" transform="translate(-506.341 -235.335)" fill="#fff"/>
      <path id="Path_7544" data-name="Path 7544" d="M553.354,241.714a5.419,5.419,0,0,0-7.035,0,5.765,5.765,0,0,0-1.28,4.18v.516a4.879,4.879,0,0,0,.024.489,3.781,3.781,0,0,1-.137,1.1,2.046,2.046,0,0,1-.365.7,1.317,1.317,0,0,1-.5.375,1.415,1.415,0,0,1-.553.114c-3.2,0-6.4-.052-9.6-.042-2.017.007-4.033.023-6.05.038l-.436,0h-.459a2.83,2.83,0,0,1-1.645-.429,1.45,1.45,0,0,1-.616-1.28v-4.441a.222.222,0,0,0-.251-.251h-1.608a.222.222,0,0,0-.251.251v4.816a1.485,1.485,0,0,1-.288,1.045,1.268,1.268,0,0,1-.918.288H519.8a1.088,1.088,0,0,0-.767.224,1.163,1.163,0,0,0-.238.854.811.811,0,0,0,.251.7,1.32,1.32,0,0,0,.754.178h1.959a2.6,2.6,0,0,0,2.613-1.307,2.187,2.187,0,0,0,.928.978,2.909,2.909,0,0,0,1.407.329h.769l.493,0,.732.005c3.205.022,6.412.029,9.618.038,1.116,0,2.231-.012,3.347-.027a13.636,13.636,0,0,0,3.2-.235,2.275,2.275,0,0,0,1.357-1.018,3.7,3.7,0,0,0,1.534,1.068,5.866,5.866,0,0,0,2.084.338,6.017,6.017,0,0,0,2-.312,3.742,3.742,0,0,0,1.507-.968,4.4,4.4,0,0,0,.955-1.685,7.854,7.854,0,0,0,.342-2.462A5.767,5.767,0,0,0,553.354,241.714Zm-1.471,6.82a2.945,2.945,0,0,1-4.094,0,4.328,4.328,0,0,1-.64-2.64,4.494,4.494,0,0,1,.64-2.586,2.716,2.716,0,0,1,4.094,0,4.494,4.494,0,0,1,.643,2.586A4.326,4.326,0,0,1,551.883,248.534Z" transform="translate(-500.503 -238.572)" fill="#fff"/>
    </g>
    <g id="Group_14817" data-name="Group 14817" transform="translate(108.834 73.909)">
      <g id="Group_14815" data-name="Group 14815" transform="translate(11.891 0)">
        <g id="Group_14809" data-name="Group 14809" transform="translate(0 21.462)">
          <g id="Group_14808" data-name="Group 14808">
            <path id="Path_7545" data-name="Path 7545" d="M158.686,133.023a16.288,16.288,0,0,0-12.251,5.033q-4.849,5.035-4.848,12.954,0,8.069,4.737,12.843t12.436,4.775a22.176,22.176,0,0,0,9.179-2.146v.148a10.078,10.078,0,0,1-5.477,9.511q-5.479,3-16.655,3l.5,3.656a2.006,2.006,0,0,0,2.032,1.728q25.815-.563,25.817-17.6V149.6q0-7.476-4.293-12.029A14.662,14.662,0,0,0,158.686,133.023Zm9.253,27.758a25.018,25.018,0,0,1-8.365,1.406q-5.626.149-8.882-2.813t-3.257-8.66a11.156,11.156,0,0,1,3.035-8.142,10.209,10.209,0,0,1,7.624-3.109,9.239,9.239,0,0,1,7.106,2.961,10.893,10.893,0,0,1,2.739,7.7Z" transform="translate(-141.587 -133.023)" fill="#fff"/>
          </g>
        </g>
        <g id="Group_14811" data-name="Group 14811" transform="translate(40.415 21.462)">
          <g id="Group_14810" data-name="Group 14810">
            <path id="Path_7546" data-name="Path 7546" d="M270,133.023a16.288,16.288,0,0,0-12.251,5.033q-4.849,5.035-4.848,12.954,0,8.069,4.738,12.843t12.435,4.775a22.176,22.176,0,0,0,9.179-2.146v.148a10.078,10.078,0,0,1-5.478,9.511q-5.479,3-16.655,3l.5,3.656a2.006,2.006,0,0,0,2.032,1.728q25.816-.563,25.817-17.6V149.6q0-7.476-4.293-12.029A14.664,14.664,0,0,0,270,133.023Zm9.253,27.758a25.017,25.017,0,0,1-8.365,1.406q-5.626.149-8.882-2.813t-3.257-8.66a11.156,11.156,0,0,1,3.035-8.142,10.21,10.21,0,0,1,7.624-3.109,9.241,9.241,0,0,1,7.106,2.961,10.9,10.9,0,0,1,2.739,7.7Z" transform="translate(-252.904 -133.023)" fill="#fff"/>
          </g>
        </g>
        <g id="Group_14813" data-name="Group 14813" transform="translate(80.83 21.166)">
          <g id="Group_14812" data-name="Group 14812">
            <path id="Path_7547" data-name="Path 7547" d="M463.929,137.056a16.128,16.128,0,0,0-11.918-4.848,16.626,16.626,0,0,0-12.324,4.885,16.82,16.82,0,0,0-4.848,12.362q0,5.107,3.33,11.991h-41.38V149.085q0-7.476-4.293-12.029a14.663,14.663,0,0,0-11.177-4.552,16.288,16.288,0,0,0-12.251,5.033q-4.849,5.035-4.848,12.954,0,8.069,4.737,12.843t12.583,4.775h8.883q-.741,5.476-6.217,7.994t-15.767,2.517l.5,3.656A2,2,0,0,0,370.97,184q24.459-.534,25.745-15.9h51.3q9.7,0,15.211-5.033t5.515-13.916A16.493,16.493,0,0,0,463.929,137.056ZM390.5,161.52q-5.773.149-8.142.148-5.627,0-8.957-2.961t-3.331-8.512a11.155,11.155,0,0,1,3.035-8.142,10.209,10.209,0,0,1,7.624-3.109,9.179,9.179,0,0,1,7.069,2.924,10.95,10.95,0,0,1,2.7,7.735Zm68.176-3.257q-3.775,3.183-10.141,3.183h-3.85q-3.7-6.587-3.7-11.917a10.9,10.9,0,0,1,3.109-7.735,10,10,0,0,1,7.55-3.294,10.506,10.506,0,0,1,10.807,10.881A10.984,10.984,0,0,1,458.673,158.263Z" transform="translate(-364.22 -132.208)" fill="#fff"/>
          </g>
        </g>
        <g id="Group_14814" data-name="Group 14814" transform="translate(156.423)">
          <path id="Path_7548" data-name="Path 7548" d="M576.348,94.792l-3.917,3.917,4.248,4.248a1.693,1.693,0,0,0,2.395,0l4.248-4.248L579.4,94.792A2.161,2.161,0,0,0,576.348,94.792Z" transform="translate(-572.431 -86.807)" fill="#009fca"/>
          <path id="Path_7549" data-name="Path 7549" d="M601.148,77.826l-3.917-3.917-3.917,3.917a2.161,2.161,0,0,0,0,3.056l3.917,3.917,3.917-3.917A2.161,2.161,0,0,0,601.148,77.826Z" transform="translate(-585.329 -73.909)" fill="#009fca"/>
          <path id="Path_7550" data-name="Path 7550" d="M614.974,94.792a2.161,2.161,0,0,0-3.056,0L608,98.709l4.248,4.248a1.693,1.693,0,0,0,2.394,0l4.248-4.248Z" transform="translate(-595.087 -86.807)" fill="#009fca"/>
        </g>
      </g>
      <g id="Group_14816" data-name="Group 14816" transform="translate(0 8.08)">
        <path id="Path_7551" data-name="Path 7551" d="M114.893,116.752c-7.962-2.05-5.789-9.969-5.789-9.969,4.341,5.829,7.879,3.98,7.879,3.98-9.688-5.628-7.428-14.6-7.428-14.6,5.838,7.855,13.344,5.77,13.344,5.77-.139,2.988,2.085,4.726,4.031,3.961s-.765-3.961-.765-3.961c7.933.622,11.661,2.862,12.768,3.668-.146,0-.288-.008-.435-.008q-9.826,0-15.629,5.924a20.447,20.447,0,0,0-5.81,14.919,25.25,25.25,0,0,0,.288,3.836c-5.463-7.286-4.949-10.787-4.949-10.787,1.93,2.09,5.387,1.445,5.187-.6S114.893,116.752,114.893,116.752Z" transform="translate(-108.834 -96.165)" fill="#009fca"/>
      </g>
    </g>
  </g>
</svg>
