<svg xmlns="http://www.w3.org/2000/svg" xmlns:xlink="http://www.w3.org/1999/xlink" width="14.215" height="13.692" viewBox="0 0 14.215 13.692">
  <defs>
    <clipPath id="clip-path">
      <path id="Path_7641" data-name="Path 7641" d="M468.224,2759.029c-.28-.3-.73-.806-1.186-1.386a7.41,7.41,0,0,0,1.406-3.545,5.366,5.366,0,0,0-.5-2.252,2.446,2.446,0,0,1,.273-.02,2.788,2.788,0,0,1,2.782,2.788C471,2755.8,469.2,2757.976,468.224,2759.029Zm-5.2,2.345c-1.516-1.6-4.611-5.273-4.611-7.272a4.609,4.609,0,1,1,9.218,0C467.631,2756.1,464.542,2759.778,463.027,2761.374Zm5.193-10.357a3.658,3.658,0,0,0-.69.073,5.42,5.42,0,0,0-9.931,3.011c0,2.9,4.927,7.932,5.137,8.145a.41.41,0,0,0,.58,0,34.631,34.631,0,0,0,3.245-3.891c.706.873,1.339,1.516,1.369,1.549a.41.41,0,0,0,.58,0c.34-.343,3.3-3.408,3.3-5.283A3.6,3.6,0,0,0,468.22,2751.017Z" transform="translate(-457.6 -2748.675)" fill="none"/>
    </clipPath>
    <clipPath id="clip-path-2">
      <path id="Path_7642" data-name="Path 7642" d="M482.575,2774.688a1.612,1.612,0,1,1,1.6-1.612A1.614,1.614,0,0,1,482.575,2774.688Zm0-4.038a2.425,2.425,0,1,0,2.415,2.425A2.428,2.428,0,0,0,482.575,2770.65Z" transform="translate(-480.15 -2770.65)" fill="none"/>
    </clipPath>
  </defs>
  <g id="Group_14887" data-name="Group 14887" transform="translate(-100.359 -51.529)">
    <circle id="Ellipse_528" data-name="Ellipse 528" cx="2" cy="2" r="2" transform="translate(104 55)" fill="#199fca"/>
    <g id="Group_14886" data-name="Group 14886" transform="translate(0 -2)">
      <path id="Path_7643" data-name="Path 7643" d="M110.37,56.39h1.943l1.273,1.009.706,1.758-.552,2.281L112,63.2l-.936,1.375-1.339-1.688-.446-.559,1.091-2.074.484-2.013Z" fill="#009fca"/>
      <g id="Group_14885" data-name="Group 14885" transform="translate(-357.241 -2695.146)">
        <g id="Group_14882" data-name="Group 14882" transform="translate(457.6 2748.675)">
          <g id="Group_14881" data-name="Group 14881" transform="translate(0 0)" clip-path="url(#clip-path)">
            <rect id="Rectangle_6621" data-name="Rectangle 6621" width="15.547" height="15.024" transform="translate(-0.666 -0.666)" fill="#2e323f"/>
          </g>
        </g>
        <g id="Group_14884" data-name="Group 14884" transform="translate(460.605 2751.603)">
          <g id="Group_14883" data-name="Group 14883" transform="translate(0 0)" clip-path="url(#clip-path-2)">
            <rect id="Rectangle_6622" data-name="Rectangle 6622" width="6.173" height="6.183" transform="translate(-0.666 -0.666)" fill="#2e323f"/>
          </g>
        </g>
      </g>
    </g>
  </g>
</svg>
