<svg xmlns="http://www.w3.org/2000/svg" width="17.908" height="17.908" viewBox="0 0 17.908 17.908">
  <g id="_48-Menu" transform="translate(-2 -2)">
    <g id="XMLID_1_" transform="translate(2 2)">
      <path id="Path_7633" data-name="Path 7633" d="M24.035,8.4V3.919a.641.641,0,0,0-.64-.64H18.919a.641.641,0,0,0-.64.64V8.4a.641.641,0,0,0,.64.64H23.4A.641.641,0,0,0,24.035,8.4ZM23.4,2a1.916,1.916,0,0,1,1.919,1.919V8.4A1.916,1.916,0,0,1,23.4,10.314H18.919A1.916,1.916,0,0,1,17,8.4V3.919A1.916,1.916,0,0,1,18.919,2Z" transform="translate(-7.407 -2)" fill="#97aabd"/>
      <path id="Path_7634" data-name="Path 7634" d="M24.035,23.4V18.919a.641.641,0,0,0-.64-.64H18.919a.641.641,0,0,0-.64.64V23.4a.641.641,0,0,0,.64.64H23.4A.641.641,0,0,0,24.035,23.4ZM23.4,17a1.916,1.916,0,0,1,1.919,1.919V23.4A1.916,1.916,0,0,1,23.4,25.314H18.919A1.916,1.916,0,0,1,17,23.4V18.919A1.916,1.916,0,0,1,18.919,17Z" transform="translate(-7.407 -7.407)" fill="#97aabd"/>
      <path id="Path_7635" data-name="Path 7635" d="M8.4,9.035a.641.641,0,0,0,.64-.64V3.919a.641.641,0,0,0-.64-.64H3.919a.641.641,0,0,0-.64.64V8.4a.641.641,0,0,0,.64.64ZM8.4,2a1.916,1.916,0,0,1,1.919,1.919V8.4A1.916,1.916,0,0,1,8.4,10.314H3.919A1.916,1.916,0,0,1,2,8.4V3.919A1.916,1.916,0,0,1,3.919,2Z" transform="translate(-2 -2)" fill="#97aabd"/>
      <path id="Path_7636" data-name="Path 7636" d="M8.4,24.035a.641.641,0,0,0,.64-.64V18.919a.641.641,0,0,0-.64-.64H3.919a.641.641,0,0,0-.64.64V23.4a.641.641,0,0,0,.64.64ZM8.4,17a1.916,1.916,0,0,1,1.919,1.919V23.4A1.916,1.916,0,0,1,8.4,25.314H3.919A1.916,1.916,0,0,1,2,23.4V18.919A1.916,1.916,0,0,1,3.919,17Z" transform="translate(-2 -7.407)" fill="#97aabd"/>
    </g>
  </g>
</svg>
