<svg xmlns="http://www.w3.org/2000/svg" width="16.633" height="16.632" viewBox="0 0 16.633 16.632">
  <g id="_x32_7-Phone" transform="translate(1.819) rotate(7)">
    <path id="Path_7670" data-name="Path 7670" d="M14.2,11.034,12.035,9.52a1.671,1.671,0,0,0-2.329.414l-.5.721A18.634,18.634,0,0,1,6.522,8.4,18.611,18.611,0,0,1,4.271,5.723l.721-.5A1.67,1.67,0,0,0,5.406,2.89L3.892.723A1.674,1.674,0,0,0,2.526,0a1.569,1.569,0,0,0-.545.1,3,3,0,0,0-.564.277l-.3.211A2.268,2.268,0,0,0,.907.773a3.005,3.005,0,0,0-.77,1.373c-.624,2.338.921,5.874,3.845,8.8,2.455,2.455,5.4,3.98,7.7,3.981h0a4.27,4.27,0,0,0,1.1-.136,3.005,3.005,0,0,0,1.373-.77,2.275,2.275,0,0,0,.2-.224l.211-.3a3.013,3.013,0,0,0,.267-.549A1.646,1.646,0,0,0,14.2,11.034Z" transform="translate(0 0)" fill="#fff"/>
  </g>
</svg>
