<svg xmlns="http://www.w3.org/2000/svg" width="28" height="28" viewBox="0 0 28 28">
  <g id="Group_15234" data-name="Group 15234" transform="translate(-27 -259)">
    <circle id="Ellipse_614" data-name="Ellipse 614" cx="14" cy="14" r="14" transform="translate(27 259)" fill="#8f95e6" opacity="0.093"/>
    <g id="user_6_" data-name="user (6)" transform="translate(33.964 265.084)">
      <g id="Group_15075" data-name="Group 15075" transform="translate(0)">
        <g id="Group_15074" data-name="Group 15074" transform="translate(0)">
          <path id="Path_7722" data-name="Path 7722" d="M115.1,8.614a4.307,4.307,0,1,0-4.307-4.307A4.319,4.319,0,0,0,115.1,8.614Z" transform="translate(-107.673)" fill="#8f95e6"/>
          <path id="Path_7723" data-name="Path 7723" d="M38.982,250.974a4.015,4.015,0,0,0-.433-.79,5.354,5.354,0,0,0-3.705-2.332.793.793,0,0,0-.545.132,4.591,4.591,0,0,1-5.417,0,.706.706,0,0,0-.545-.132,5.315,5.315,0,0,0-3.705,2.332,4.629,4.629,0,0,0-.433.79.4.4,0,0,0,.019.357,7.5,7.5,0,0,0,.508.752,7.148,7.148,0,0,0,.865.978,11.266,11.266,0,0,0,.865.752,8.577,8.577,0,0,0,10.232,0,8.269,8.269,0,0,0,.865-.752,8.683,8.683,0,0,0,.865-.978,6.593,6.593,0,0,0,.508-.752A.321.321,0,0,0,38.982,250.974Z" transform="translate(-24.165 -238.918)" fill="#8f95e6"/>
        </g>
      </g>
    </g>
  </g>
</svg>
