<svg xmlns="http://www.w3.org/2000/svg" width="28" height="28" viewBox="0 0 28 28">
  <g id="Group_15236" data-name="Group 15236" transform="translate(-27 -391)">
    <circle id="Ellipse_616" data-name="Ellipse 616" cx="14" cy="14" r="14" transform="translate(27 391)" fill="#fec12d" opacity="0.093"/>
    <path id="star_3_" data-name="star (3)" d="M15.724,6.2A.836.836,0,0,0,15,5.625l-4.55-.413L8.653,1A.838.838,0,0,0,7.112,1l-1.8,4.211L.762,5.625A.839.839,0,0,0,.286,7.091l3.439,3.016L2.712,14.575a.837.837,0,0,0,1.246.905l3.925-2.346,3.924,2.346a.838.838,0,0,0,1.247-.905l-1.014-4.468,3.439-3.016A.838.838,0,0,0,15.724,6.2Zm0,0" transform="translate(33 396.508)" fill="#ffc107"/>
  </g>
</svg>
