<svg xmlns="http://www.w3.org/2000/svg" xmlns:xlink="http://www.w3.org/1999/xlink" width="70" height="70" viewBox="0 0 70 70">
  <defs>
    <filter id="Path_7720" x="0" y="0" width="70" height="70" filterUnits="userSpaceOnUse">
      <feOffset input="SourceAlpha"/>
      <feGaussianBlur stdDeviation="4" result="blur"/>
      <feFlood flood-color="#868686" flood-opacity="0.325"/>
      <feComposite operator="in" in2="blur"/>
      <feComposite in="SourceGraphic"/>
    </filter>
  </defs>
  <g id="Group_15251" data-name="Group 15251" transform="translate(-309 -596)">
    <g id="Group_15068" data-name="Group 15068" transform="translate(-1 57)">
      <g transform="matrix(1, 0, 0, 1, 310, 539)" filter="url(#Path_7720)">
        <path id="Path_7720-2" data-name="Path 7720" d="M23,0A23,23,0,1,1,0,23,23,23,0,0,1,23,0Z" transform="translate(12 12)" fill="#199fca"/>
      </g>
    </g>
    <path id="positive-review_copy" data-name="positive-review copy" d="M46.53,12.192H42.047a10.529,10.529,0,0,0,.6-2.841c.076-1.879-.811-2.623-1.569-2.916a.454.454,0,0,0-.1-.026.753.753,0,0,0-.935.5l-.018.041a.479.479,0,0,0-.039.141,7.729,7.729,0,0,1-1.958,4.3v8.956a3.166,3.166,0,0,0,.37.111.483.483,0,0,0,.1.013c.375,0,.823.006,1.338.006s1.1,0,1.744-.006h4.223A1.394,1.394,0,0,0,47,18.354a1.392,1.392,0,0,0,.321-1.877,1.392,1.392,0,0,0,.2-1.915,1.393,1.393,0,0,0-.994-2.37Zm-9.438-8.04a.48.48,0,0,0-.4-.329l-1.309-.151-.548-1.2a.479.479,0,0,0-.873,0l-.548,1.2L32.1,3.823a.48.48,0,0,0-.27.83l.971.891-.261,1.292a.48.48,0,0,0,.706.513L34.4,6.7l1.148.648a.48.48,0,0,0,.706-.513L35.99,5.545l.971-.891a.479.479,0,0,0,.132-.5Zm12.5,0a.479.479,0,0,1-.132.5l-.971.891.261,1.292a.48.48,0,0,1-.706.513L46.894,6.7l-1.148.648a.48.48,0,0,1-.706-.513L45.3,5.545l-.971-.891a.48.48,0,0,1,.27-.83l1.309-.151.548-1.2a.479.479,0,0,1,.872,0l.548,1.2,1.309.151a.48.48,0,0,1,.4.329Zm-5.714-1.8a.482.482,0,0,0-.4-.33l-1.686-.192L41.082.287a.481.481,0,0,0-.873,0L39.5,1.832l-1.686.192a.48.48,0,0,0-.27.83L38.8,4l-.336,1.663a.48.48,0,0,0,.706.513l1.478-.834,1.478.834a.48.48,0,0,0,.706-.513L42.493,4l1.25-1.148a.479.479,0,0,0,.132-.5Zm-6.8,9.925a.939.939,0,0,0-.794-.439H32.965a.94.94,0,0,0-.939.939v6.756a.94.94,0,0,0,.939.939h3.311a.939.939,0,0,0,.794-.439ZM33.24,13.6a.48.48,0,0,1,.48-.48h.352a.48.48,0,1,1,0,.959h-.352a.48.48,0,0,1-.48-.48Z" transform="translate(303.32 618.992)" fill="#fefefe"/>
  </g>
</svg>
