<svg xmlns="http://www.w3.org/2000/svg" width="22.466" height="17.294" viewBox="0 0 22.466 17.294">
  <g id="Group_15228" data-name="Group 15228" transform="translate(-45.826 -628.232)">
    <path id="home_8_" data-name="home (8)" d="M17.327,7.522h0L10.271.466a1.592,1.592,0,0,0-2.252,0L.969,7.517l-.007.007a1.591,1.591,0,0,0,1.059,2.712l.049,0h.281v5.191a1.865,1.865,0,0,0,1.863,1.863h2.76a.507.507,0,0,0,.507-.507v-4.07a.851.851,0,0,1,.85-.85H9.96a.851.851,0,0,1,.85.85v4.07a.507.507,0,0,0,.507.507h2.76a1.865,1.865,0,0,0,1.863-1.863V10.239H16.2a1.592,1.592,0,0,0,1.127-2.717ZM16.61,9.056a.575.575,0,0,1-.409.17h-.767a.507.507,0,0,0-.507.507v5.7a.851.851,0,0,1-.85.85H11.823V12.717A1.866,1.866,0,0,0,9.96,10.854H8.332a1.866,1.866,0,0,0-1.864,1.863v3.563H4.215a.851.851,0,0,1-.85-.85v-5.7a.507.507,0,0,0-.507-.507H2.08a.578.578,0,0,1-.4-.987h0L8.736,1.183a.578.578,0,0,1,.818,0l7.053,7.053,0,0A.58.58,0,0,1,16.61,9.056Zm0,0" transform="translate(50.5 628.232)" fill="#fff"/>
    <g id="Group_14879" data-name="Group 14879" transform="translate(40.826 630.435)">
      <circle id="Ellipse_7" data-name="Ellipse 7" cx="3.587" cy="3.587" r="3.587" transform="translate(5 -0.143)" fill="#fff" opacity="0.5"/>
    </g>
  </g>
</svg>
