<svg xmlns="http://www.w3.org/2000/svg" width="28" height="28" viewBox="0 0 28 28">
  <g id="Group_24527" data-name="Group 24527" transform="translate(-27 -552)">
    <g id="Group_24526" data-name="Group 24526" transform="translate(0 29)">
      <circle id="Ellipse_618" data-name="Ellipse 618" cx="14" cy="14" r="14" transform="translate(27 523)" fill="#fd843f" opacity="0.093"/>
    </g>
    <path id="setting" d="M17.143,8.762h-.809a6,6,0,0,0-.386-.927l.573-.573a1.048,1.048,0,0,0,0-1.482L15.411,4.669a1.048,1.048,0,0,0-1.482,0l-.573.573a6,6,0,0,0-.927-.386V4.048A1.048,1.048,0,0,0,11.381,3H9.81A1.048,1.048,0,0,0,8.762,4.048v.809a6,6,0,0,0-.927.386l-.573-.573a1.048,1.048,0,0,0-1.482,0L4.669,5.78a1.048,1.048,0,0,0,0,1.482l.573.573a6,6,0,0,0-.386.927H4.048A1.048,1.048,0,0,0,3,9.81v1.571a1.048,1.048,0,0,0,1.048,1.048h.809a6,6,0,0,0,.386.927l-.573.573a1.048,1.048,0,0,0,0,1.482L5.78,16.522a1.048,1.048,0,0,0,1.482,0l.573-.573a6,6,0,0,0,.927.386v.809A1.048,1.048,0,0,0,9.81,18.191h1.571a1.048,1.048,0,0,0,1.048-1.048v-.809a6,6,0,0,0,.927-.386l.573.573a1.048,1.048,0,0,0,1.482,0l1.111-1.111a1.048,1.048,0,0,0,0-1.482l-.573-.573a6,6,0,0,0,.386-.927h.809a1.048,1.048,0,0,0,1.048-1.048V9.81A1.048,1.048,0,0,0,17.143,8.762ZM10.6,13.738A3.143,3.143,0,1,1,13.738,10.6,3.143,3.143,0,0,1,10.6,13.738Z" transform="translate(30.405 555.405)" fill="#fd843f"/>
  </g>
</svg>
