<svg id="Group_15226" data-name="Group 15226" xmlns="http://www.w3.org/2000/svg" xmlns:xlink="http://www.w3.org/1999/xlink" width="375" height="667" viewBox="0 0 375 667">
  <defs>
    <radialGradient id="radial-gradient" cx="0.5" cy="0.5" r="0.852" gradientUnits="objectBoundingBox">
      <stop offset="0" stop-color="#493c81"/>
      <stop offset="1" stop-color="#322763"/>
    </radialGradient>
    <clipPath id="clip-path">
      <rect id="Rectangle_6589" data-name="Rectangle 6589" width="375" height="667" fill="url(#radial-gradient)"/>
    </clipPath>
    <clipPath id="clip-path-2">
      <rect id="Rectangle_6562" data-name="Rectangle 6562" width="199" height="137" fill="#fff"/>
    </clipPath>
    <clipPath id="clip-path-3">
      <rect id="Rectangle_6563" data-name="Rectangle 6563" width="114" height="178" transform="translate(261 489)" fill="#fff"/>
    </clipPath>
    <filter id="Path_7519" x="292.523" y="500.908" width="246.713" height="277.177" filterUnits="userSpaceOnUse">
      <feOffset dy="3" input="SourceAlpha"/>
      <feGaussianBlur stdDeviation="3" result="blur"/>
      <feFlood flood-opacity="0.161"/>
      <feComposite operator="in" in2="blur"/>
      <feComposite in="SourceGraphic"/>
    </filter>
  </defs>
  <rect id="Rectangle_1" data-name="Rectangle 1" width="375" height="667" fill="url(#radial-gradient)"/>
  <g id="Group_14818" data-name="Group 14818" transform="translate(-31.834 204.091)">
    <g id="Group_14806" data-name="Group 14806" transform="translate(158.747 170.228)">
      <path id="Path_7527" data-name="Path 7527" d="M243.331,319.169a.845.845,0,0,0,.349.729,1.582,1.582,0,0,0,.95.254h.269a.612.612,0,0,1,.476.174.871.871,0,0,1,.158.586,1,1,0,0,1-.15.634.607.607,0,0,1-.484.174,3.408,3.408,0,0,1-1.061-.15,1.275,1.275,0,0,1-.729-.658,1.218,1.218,0,0,1-.665.634,3.37,3.37,0,0,1-1.2.174h-7.718a1.823,1.823,0,0,1-1.426-.483,2.242,2.242,0,0,1-.428-1.514v-3.407a.14.14,0,0,1,.158-.158h1.458a.14.14,0,0,1,.158.158v3q0,.57.3.705a2.905,2.905,0,0,0,1.062.135h5.959a.957.957,0,0,0,.436-.079.51.51,0,0,0,.23-.254,1.308,1.308,0,0,0,.1-.459c.01-.191.016-.423.016-.7V311.1a.14.14,0,0,1,.158-.158h1.473a.14.14,0,0,1,.159.158Zm-5.626-4.485h.269a.911.911,0,0,1,.753.285,1.406,1.406,0,0,1,.23.888v.3a1.225,1.225,0,0,1-.221.856.979.979,0,0,1-.713.222h-1.87a.14.14,0,0,1-.159-.159V316.6a.14.14,0,0,1,.159-.159h1.6q.205,0,.261-.079a.449.449,0,0,0,.056-.254.851.851,0,0,0-.1-.531.779.779,0,0,0-.5-.1h-.745a.2.2,0,0,1-.221-.222v-.364a.264.264,0,0,1,.039-.143.508.508,0,0,1,.072-.095l1.22-1.443c.085-.105.169-.116.254-.032l.4.349c.052.053.074.1.063.127a.723.723,0,0,1-.063.127Z" transform="translate(-231.667 -310.945)" fill="#fff"/>
      <path id="Path_7528" data-name="Path 7528" d="M263.305,327.856a.666.666,0,0,1-.475-.15.8.8,0,0,1-.159-.579,1.066,1.066,0,0,1,.15-.649.579.579,0,0,1,.483-.191h1.031a.793.793,0,0,0,.578-.182.926.926,0,0,0,.182-.658v-4.009a.14.14,0,0,1,.158-.158h1.474a.14.14,0,0,1,.159.158v4.421a2.242,2.242,0,0,1-.428,1.514,1.823,1.823,0,0,1-1.426.483Z" transform="translate(-250.073 -317.08)" fill="#fff"/>
      <rect id="Rectangle_6564" data-name="Rectangle 6564" width="1.648" height="1.68" rx="0.391" transform="translate(13.324 12.968) rotate(-45)" fill="#fff"/>
      <path id="Rectangle_6565" data-name="Rectangle 6565" d="M.391,0h.9a.39.39,0,0,1,.39.39v.869a.39.39,0,0,1-.39.39h-.9A.391.391,0,0,1,0,1.257V.391A.391.391,0,0,1,.391,0Z" transform="translate(15.384 12.99) rotate(-45)" fill="#fff"/>
      <path id="Path_7529" data-name="Path 7529" d="M278.636,322.162a.14.14,0,0,1-.158-.158v-1.268a.14.14,0,0,1,.158-.159h2.409a3.163,3.163,0,0,1,2.115.666,2.7,2.7,0,0,1,.785,2.171v1.49a.829.829,0,0,0,.348.713,1.584,1.584,0,0,0,.951.254h.269a.612.612,0,0,1,.475.174.868.868,0,0,1,.159.586,1,1,0,0,1-.151.634.6.6,0,0,1-.483.174,3.381,3.381,0,0,1-1.149-.174,1.35,1.35,0,0,1-.753-.729,1.5,1.5,0,0,1-.816.721,4.03,4.03,0,0,1-1.323.182h-3.55a.14.14,0,0,1-.158-.159v-1.252a.14.14,0,0,1,.158-.158h2.948a2.925,2.925,0,0,0,.682-.063.745.745,0,0,0,.388-.214.755.755,0,0,0,.174-.388,3.7,3.7,0,0,0,.039-.586v-1.062a1.3,1.3,0,0,0-.4-1.062,1.875,1.875,0,0,0-1.212-.333Z" transform="translate(-259.033 -316.663)" fill="#fff"/>
      <path id="Path_7530" data-name="Path 7530" d="M295.65,327.856a.668.668,0,0,1-.475-.15.8.8,0,0,1-.158-.579,1.066,1.066,0,0,1,.15-.649.578.578,0,0,1,.483-.191H308.46a.8.8,0,0,0,.579-.182.926.926,0,0,0,.182-.658v-4.009a.14.14,0,0,1,.158-.158h1.474a.14.14,0,0,1,.159.158v4.421a2.24,2.24,0,0,1-.428,1.514,1.823,1.823,0,0,1-1.426.483Z" transform="translate(-269.274 -317.08)" fill="#fff"/>
      <rect id="Rectangle_6566" data-name="Rectangle 6566" width="1.648" height="1.68" rx="0.391" transform="translate(38.247 12.968) rotate(-45)" fill="#fff"/>
      <path id="Rectangle_6567" data-name="Rectangle 6567" d="M.391,0h.9A.391.391,0,0,1,1.68.391v.868a.39.39,0,0,1-.39.39h-.9A.391.391,0,0,1,0,1.257V.391A.391.391,0,0,1,.391,0Z" transform="translate(40.307 12.99) rotate(-45)" fill="#fff"/>
      <path id="Path_7531" data-name="Path 7531" d="M339.433,340.23a1.007,1.007,0,0,1-.113-.255,1.093,1.093,0,0,1-.044-.314,1.115,1.115,0,0,1,.054-.338.842.842,0,0,1,.181-.314.953.953,0,0,1,.323-.23,1.315,1.315,0,0,1,.97.01.876.876,0,0,1,.343.265.071.071,0,0,1,0,.1l-.255.235q-.039.039-.059.039a.056.056,0,0,1-.039-.02.623.623,0,0,0-.471-.226.449.449,0,0,0-.353.142.5.5,0,0,0-.128.348.561.561,0,0,0,.1.338.983.983,0,0,0,.211.221h.99c.039,0,.059.023.059.069v.353c0,.046-.02.069-.059.069h-2.078c-.039,0-.059-.023-.059-.069V340.3c0-.046.02-.069.059-.069Z" transform="translate(-295.392 -327.417)" fill="#fff"/>
      <path id="Rectangle_6568" data-name="Rectangle 6568" d="M.39,0H1.4a.39.39,0,0,1,.39.39v10a.39.39,0,0,1-.39.39H.391A.391.391,0,0,1,0,10.386V.39A.39.39,0,0,1,.39,0Z" transform="translate(43.893)" fill="#fff"/>
      <path id="Path_7532" data-name="Path 7532" d="M372.724,324.714a.14.14,0,0,1,.159-.159h1.474a.141.141,0,0,1,.159.159v2.535a.839.839,0,0,0,.356.729,1.621,1.621,0,0,0,.959.254H376a.612.612,0,0,1,.475.174.869.869,0,0,1,.158.586.992.992,0,0,1-.15.634.6.6,0,0,1-.483.174,3.434,3.434,0,0,1-.848-.1,1.223,1.223,0,0,1-.642-.412v.174a4.19,4.19,0,0,1-.278,1.585,2.966,2.966,0,0,1-.792,1.133,3.349,3.349,0,0,1-1.228.674,5.318,5.318,0,0,1-1.584.222,5.125,5.125,0,0,1-1.545-.222,3.431,3.431,0,0,1-1.228-.674,3.07,3.07,0,0,1-.816-1.133,4.028,4.028,0,0,1-.293-1.6,5.671,5.671,0,0,1,.269-1.712,6.157,6.157,0,0,1,.666-1.474q.079-.143.238-.032l1.284.507c.053.021.082.05.087.087a.2.2,0,0,1-.024.119,7.639,7.639,0,0,0-.484,1.037,3.6,3.6,0,0,0-.23,1.308,2.428,2.428,0,0,0,.2,1.038,1.907,1.907,0,0,0,.507.673,1.836,1.836,0,0,0,.689.357,2.841,2.841,0,0,0,.745.1,2.17,2.17,0,0,0,1.466-.484,1.953,1.953,0,0,0,.562-1.56Z" transform="translate(-311.858 -319.024)" fill="#fff"/>
      <path id="Rectangle_6569" data-name="Rectangle 6569" d="M.391,0H1.448a.391.391,0,0,1,.391.391v.9a.39.39,0,0,1-.39.39H.39A.39.39,0,0,1,0,1.29v-.9A.391.391,0,0,1,.391,0Z" transform="translate(57.973 3.954) rotate(-45)" fill="#fff"/>
      <path id="Path_7533" data-name="Path 7533" d="M392.153,327.048a1.215,1.215,0,0,1-.674.634,3.436,3.436,0,0,1-1.212.174h-1.474a.667.667,0,0,1-.475-.15.826.826,0,0,1-.159-.594,1.029,1.029,0,0,1,.151-.642.592.592,0,0,1,.483-.182h1.03a.888.888,0,0,0,.436-.087.515.515,0,0,0,.222-.269,1.546,1.546,0,0,0,.087-.475q.016-.294.015-.721v-3.3a.123.123,0,0,1,.087-.127.528.528,0,0,1,.182-.031h1.363a.14.14,0,0,1,.158.158V325.3a.839.839,0,0,0,.356.729,1.622,1.622,0,0,0,.959.254h.269a.612.612,0,0,1,.475.174.866.866,0,0,1,.158.586.993.993,0,0,1-.15.634.6.6,0,0,1-.483.174,3.467,3.467,0,0,1-1.078-.15A1.274,1.274,0,0,1,392.153,327.048Z" transform="translate(-324.569 -317.08)" fill="#fff"/>
      <path id="Rectangle_6570" data-name="Rectangle 6570" d="M.391,0h.867a.391.391,0,0,1,.391.391v.9a.39.39,0,0,1-.39.39H.391A.391.391,0,0,1,0,1.29v-.9A.391.391,0,0,1,.391,0Z" transform="translate(64.601 12.968) rotate(-45)" fill="#fff"/>
      <rect id="Rectangle_6571" data-name="Rectangle 6571" width="1.648" height="1.68" rx="0.391" transform="translate(66.661 12.968) rotate(-45)" fill="#fff"/>
      <path id="Path_7534" data-name="Path 7534" d="M401.508,327.856a.832.832,0,0,1-.475-.111.512.512,0,0,1-.158-.444,1.592,1.592,0,0,1,.15-.705.5.5,0,0,1,.484-.309h.777a.8.8,0,0,0,.579-.182.927.927,0,0,0,.182-.658v-4.009a.14.14,0,0,1,.158-.158h1.474a.14.14,0,0,1,.158.158v4.421a2.242,2.242,0,0,1-.428,1.514,1.824,1.824,0,0,1-1.426.483Z" transform="translate(-332.117 -317.08)" fill="#fff"/>
      <path id="Rectangle_6572" data-name="Rectangle 6572" d="M.391,0H1.449a.39.39,0,0,1,.39.39v.9a.391.391,0,0,1-.391.391H.391A.391.391,0,0,1,0,1.289v-.9A.391.391,0,0,1,.391,0Z" transform="translate(70.303 13.004) rotate(-45)" fill="#fff"/>
      <path id="Path_7535" data-name="Path 7535" d="M503.756,321.721a.667.667,0,0,1-.475-.15.855.855,0,0,1-.158-.61c0-.3,1.653-.5,1.754-.626a.592.592,0,0,1,.483-.182h1.987a.8.8,0,0,0,.579-.182.926.926,0,0,0,.182-.658V311.1a.14.14,0,0,1,.158-.158h1.474a.14.14,0,0,1,.158.158v8.621a2.24,2.24,0,0,1-.428,1.514,1.823,1.823,0,0,1-1.426.483Z" transform="translate(-392.816 -310.945)" fill="#fff"/>
      <path id="Path_7536" data-name="Path 7536" d="M526.656,321.563a.14.14,0,0,1-.159.159h-1.474a.14.14,0,0,1-.158-.159V311.1a.14.14,0,0,1,.158-.158H526.5a.14.14,0,0,1,.159.158Z" transform="translate(-405.724 -310.945)" fill="#fff"/>
      <g id="Group_14805" data-name="Group 14805" transform="translate(78.179 1.416)">
        <path id="Path_7537" data-name="Path 7537" d="M425.456,330.417a.145.145,0,0,1-.164-.164V329.3a.145.145,0,0,1,.164-.164h1.97a2.352,2.352,0,0,0,.607-.074,1.228,1.228,0,0,0,.484-.246,1.121,1.121,0,0,0,.32-.476,2.181,2.181,0,0,0,.115-.763v-.427H427.2a4.6,4.6,0,0,1-1.3-.172,2.311,2.311,0,0,1-1.617-1.584,5.033,5.033,0,0,1-.213-1.575,4.766,4.766,0,0,1,.254-1.633,3.22,3.22,0,0,1,.69-1.149,2.774,2.774,0,0,1,1.009-.673,3.349,3.349,0,0,1,1.215-.221,3.033,3.033,0,0,1,2.281.845,3.824,3.824,0,0,1,.821,2.733v2.15h1.133a.746.746,0,0,1,.492.139.587.587,0,0,1,.164.468q0,.427-.156.55a.81.81,0,0,1-.5.123h-1.133v.394a3.722,3.722,0,0,1-.205,1.313,2.2,2.2,0,0,1-1.469,1.395,3.9,3.9,0,0,1-1.165.164Zm1.772-8.994a1.539,1.539,0,0,0-1.3.656,2.862,2.862,0,0,0-.484,1.74,2.179,2.179,0,0,0,.468,1.608,1.945,1.945,0,0,0,1.387.443h1.658v-2.15a3.04,3.04,0,0,0-.4-1.69A1.467,1.467,0,0,0,427.228,321.423Z" transform="translate(-424.061 -317.821)" fill="#fff"/>
        <path id="Path_7538" data-name="Path 7538" d="M441.641,327.583a.859.859,0,0,1-.492-.115.53.53,0,0,1-.164-.46.765.765,0,0,1,.156-.558.711.711,0,0,1,.5-.148h1.116a.819.819,0,0,0,.6-.189.959.959,0,0,0,.189-.681v-4.4a.145.145,0,0,1,.164-.164h1.051a.145.145,0,0,1,.164.164v4.152a.951.951,0,0,0,.4.837,1.852,1.852,0,0,0,1.075.279h.2a.746.746,0,0,1,.492.139.587.587,0,0,1,.164.468q0,.427-.156.55a.81.81,0,0,1-.5.123h-.361a1.9,1.9,0,0,1-.919-.213,1.436,1.436,0,0,1-.607-.64,1.7,1.7,0,0,1-1.707.854Z" transform="translate(-434.107 -318.253)" fill="#fff"/>
        <rect id="Rectangle_6573" data-name="Rectangle 6573" width="1.444" height="1.527" rx="0.404" transform="translate(7.878 11.59) rotate(-45)" fill="#fff"/>
        <rect id="Rectangle_6574" data-name="Rectangle 6574" width="1.444" height="1.527" rx="0.404" transform="translate(9.88 11.59) rotate(-45)" fill="#fff"/>
        <path id="Path_7539" data-name="Path 7539" d="M459.663,314.487l-.789.789a.145.145,0,0,0,0,.232l.848.848a.145.145,0,0,0,.232,0l.789-.789a.145.145,0,0,0,0-.232l-.848-.848A.145.145,0,0,0,459.663,314.487Z" transform="translate(-444.693 -314.43)" fill="#fff"/>
        <path id="Path_7540" data-name="Path 7540" d="M476.043,320.988a3.54,3.54,0,0,0-4.6,0,3.766,3.766,0,0,0-.836,2.731v.337a3.177,3.177,0,0,0,.015.32,2.461,2.461,0,0,1-.09.716,1.328,1.328,0,0,1-.239.46.863.863,0,0,1-.328.245.929.929,0,0,1-.361.074c-2.091,0-4.182-.034-6.274-.027-1.317,0-2.635.015-3.952.025l-.285,0h-.3a1.851,1.851,0,0,1-1.074-.28.948.948,0,0,1-.4-.836V320.6a.145.145,0,0,0-.164-.164h-1.05a.145.145,0,0,0-.164.164V325a.969.969,0,0,1-.188.683.827.827,0,0,1-.6.188h-1.033a.711.711,0,0,0-.5.147.76.76,0,0,0-.155.558.531.531,0,0,0,.164.46.862.862,0,0,0,.492.116h1.28a1.7,1.7,0,0,0,1.707-.853,1.43,1.43,0,0,0,.606.639,1.9,1.9,0,0,0,.919.214h.5l.322,0,.478,0c2.094.014,4.189.019,6.283.025.729,0,1.458-.008,2.186-.018a8.918,8.918,0,0,0,2.089-.153,1.486,1.486,0,0,0,.886-.665,2.423,2.423,0,0,0,1,.7,3.837,3.837,0,0,0,1.361.221,3.941,3.941,0,0,0,1.3-.2,2.446,2.446,0,0,0,.985-.633,2.872,2.872,0,0,0,.624-1.1,5.134,5.134,0,0,0,.224-1.608A3.768,3.768,0,0,0,476.043,320.988Zm-.961,4.456a1.924,1.924,0,0,1-2.674,0,2.826,2.826,0,0,1-.418-1.725,2.933,2.933,0,0,1,.418-1.689,1.773,1.773,0,0,1,2.674,0,2.935,2.935,0,0,1,.42,1.689A2.827,2.827,0,0,1,475.083,325.443Z" transform="translate(-441.517 -317.82)" fill="#fff"/>
      </g>
    </g>
    <g id="Group_14807" data-name="Group 14807" transform="translate(254.95 141.009)">
      <path id="Path_7541" data-name="Path 7541" d="M470.805,258.023a.249.249,0,0,1-.281-.281v-1.631a.248.248,0,0,1,.281-.281h3.374a4.052,4.052,0,0,0,1.041-.127,2.107,2.107,0,0,0,.829-.422,1.931,1.931,0,0,0,.549-.816,3.75,3.75,0,0,0,.2-1.307v-.731h-3.009a7.877,7.877,0,0,1-2.236-.295,3.955,3.955,0,0,1-2.77-2.714,8.615,8.615,0,0,1-.365-2.7,8.157,8.157,0,0,1,.436-2.8,5.51,5.51,0,0,1,1.181-1.968,4.745,4.745,0,0,1,1.729-1.153,5.74,5.74,0,0,1,2.081-.38,5.2,5.2,0,0,1,3.909,1.449q1.406,1.448,1.406,4.682v3.684h1.94a1.281,1.281,0,0,1,.844.239,1,1,0,0,1,.281.8q0,.731-.267.942a1.389,1.389,0,0,1-.857.211h-1.94v.675a6.377,6.377,0,0,1-.351,2.25,3.77,3.77,0,0,1-2.517,2.39,6.69,6.69,0,0,1-2,.281Zm3.037-15.409a2.636,2.636,0,0,0-2.235,1.125,4.905,4.905,0,0,0-.83,2.981,3.734,3.734,0,0,0,.8,2.755,3.332,3.332,0,0,0,2.376.759h2.84V246.55a5.212,5.212,0,0,0-.689-2.9A2.514,2.514,0,0,0,473.842,242.613Z" transform="translate(-468.415 -238.354)" fill="#fff"/>
      <path id="Path_7542" data-name="Path 7542" d="M498.534,256.27a1.474,1.474,0,0,1-.844-.2.908.908,0,0,1-.281-.788,1.31,1.31,0,0,1,.267-.956,1.217,1.217,0,0,1,.858-.253h1.912a1.4,1.4,0,0,0,1.026-.323,1.642,1.642,0,0,0,.323-1.167v-5.411a.249.249,0,0,1,.281-.281h1.8a.249.249,0,0,1,.281.281v4.99a1.629,1.629,0,0,0,.688,1.434,3.174,3.174,0,0,0,1.842.478h.337a1.278,1.278,0,0,1,.844.239,1,1,0,0,1,.281.8q0,.731-.267.942a1.39,1.39,0,0,1-.858.211h-.618a3.255,3.255,0,0,1-1.575-.365,2.458,2.458,0,0,1-1.041-1.1,2.912,2.912,0,0,1-2.924,1.462Z" transform="translate(-485.627 -242.197)" fill="#fff"/>
      <rect id="Rectangle_6575" data-name="Rectangle 6575" width="2.475" height="2.615" rx="0.692" transform="translate(13.497 17.946) rotate(-45)" fill="#fff"/>
      <rect id="Rectangle_6576" data-name="Rectangle 6576" width="2.474" height="2.615" rx="0.692" transform="translate(16.927 17.946) rotate(-45)" fill="#fff"/>
      <path id="Path_7543" data-name="Path 7543" d="M529.411,235.434l-1.352,1.352a.248.248,0,0,0,0,.4l1.453,1.453a.249.249,0,0,0,.4,0l1.352-1.352a.248.248,0,0,0,0-.4l-1.453-1.453A.248.248,0,0,0,529.411,235.434Z" transform="translate(-503.764 -235.335)" fill="#fff"/>
      <path id="Path_7544" data-name="Path 7544" d="M557.474,241.868a6.066,6.066,0,0,0-7.873,0q-1.434,1.445-1.432,4.679v.577a5.472,5.472,0,0,0,.026.547,4.231,4.231,0,0,1-.154,1.226,2.29,2.29,0,0,1-.409.788,1.474,1.474,0,0,1-.562.42,1.584,1.584,0,0,1-.618.128c-3.583,0-7.165-.059-10.748-.047-2.257.007-4.514.026-6.771.042l-.488,0h-.514a3.168,3.168,0,0,1-1.841-.48,1.623,1.623,0,0,1-.69-1.432v-4.97a.249.249,0,0,0-.281-.281h-1.8a.249.249,0,0,0-.281.281v5.39a1.663,1.663,0,0,1-.322,1.17,1.42,1.42,0,0,1-1.027.322h-1.77a1.218,1.218,0,0,0-.859.251,1.3,1.3,0,0,0-.266.956.908.908,0,0,0,.281.788,1.477,1.477,0,0,0,.844.2h2.193a2.913,2.913,0,0,0,2.924-1.462,2.447,2.447,0,0,0,1.039,1.095,3.256,3.256,0,0,0,1.575.368h.861l.552,0,.819.006c3.587.024,7.177.032,10.765.042,1.249,0,2.5-.013,3.746-.03a15.263,15.263,0,0,0,3.578-.263,2.546,2.546,0,0,0,1.518-1.14,4.147,4.147,0,0,0,1.717,1.2,6.566,6.566,0,0,0,2.332.379,6.735,6.735,0,0,0,2.234-.349,4.187,4.187,0,0,0,1.687-1.083,4.925,4.925,0,0,0,1.068-1.886,8.791,8.791,0,0,0,.382-2.756Q558.91,243.313,557.474,241.868Zm-1.646,7.633a3.3,3.3,0,0,1-4.582,0,4.844,4.844,0,0,1-.716-2.955,5.03,5.03,0,0,1,.716-2.894,3.039,3.039,0,0,1,4.582,0,5.029,5.029,0,0,1,.72,2.894A4.842,4.842,0,0,1,555.828,249.5Z" transform="translate(-498.322 -238.352)" fill="#fff"/>
    </g>
    <g id="Group_14817" data-name="Group 14817" transform="translate(108.834 73.909)">
      <g id="Group_14815" data-name="Group 14815" transform="translate(13.309 0)">
        <g id="Group_14809" data-name="Group 14809" transform="translate(0 24.021)">
          <g id="Group_14808" data-name="Group 14808">
            <path id="Path_7545" data-name="Path 7545" d="M160.725,133.023a18.23,18.23,0,0,0-13.711,5.634q-5.427,5.635-5.426,14.5,0,9.031,5.3,14.374t13.918,5.344a24.82,24.82,0,0,0,10.273-2.4v.165q0,7.289-6.131,10.646t-18.641,3.356l.561,4.092a2.245,2.245,0,0,0,2.275,1.934q28.893-.63,28.895-19.7V151.581q0-8.367-4.805-13.463A16.411,16.411,0,0,0,160.725,133.023Zm10.356,31.068a28,28,0,0,1-9.362,1.574q-6.3.166-9.941-3.148t-3.646-9.693a12.487,12.487,0,0,1,3.4-9.113,11.426,11.426,0,0,1,8.533-3.48,10.341,10.341,0,0,1,7.953,3.314,12.192,12.192,0,0,1,3.066,8.616Z" transform="translate(-141.587 -133.023)" fill="#fff"/>
          </g>
        </g>
        <g id="Group_14811" data-name="Group 14811" transform="translate(45.234 24.021)">
          <g id="Group_14810" data-name="Group 14810">
            <path id="Path_7546" data-name="Path 7546" d="M272.042,133.023a18.23,18.23,0,0,0-13.711,5.634q-5.427,5.635-5.426,14.5,0,9.031,5.3,14.374t13.918,5.344a24.82,24.82,0,0,0,10.273-2.4v.165q0,7.289-6.131,10.646t-18.641,3.356l.561,4.092a2.245,2.245,0,0,0,2.275,1.934q28.894-.63,28.895-19.7V151.581q0-8.367-4.8-13.463A16.412,16.412,0,0,0,272.042,133.023ZM282.4,164.091a28,28,0,0,1-9.362,1.574q-6.3.166-9.941-3.148t-3.646-9.693a12.486,12.486,0,0,1,3.4-9.113,11.427,11.427,0,0,1,8.533-3.48,10.342,10.342,0,0,1,7.953,3.314,12.194,12.194,0,0,1,3.065,8.616Z" transform="translate(-252.904 -133.023)" fill="#fff"/>
          </g>
        </g>
        <g id="Group_14813" data-name="Group 14813" transform="translate(90.467 23.69)">
          <g id="Group_14812" data-name="Group 14812">
            <path id="Path_7547" data-name="Path 7547" d="M475.818,137.634a18.051,18.051,0,0,0-13.339-5.426,18.608,18.608,0,0,0-13.794,5.468,18.825,18.825,0,0,0-5.426,13.835q0,5.716,3.727,13.421H400.672V151.1q0-8.367-4.805-13.463a16.411,16.411,0,0,0-12.51-5.1,18.23,18.23,0,0,0-13.711,5.634q-5.427,5.635-5.426,14.5,0,9.031,5.3,14.374t14.084,5.344h9.942q-.829,6.129-6.959,8.947t-17.647,2.817l.561,4.092a2.244,2.244,0,0,0,2.272,1.934q27.375-.6,28.815-17.79h57.416q10.851,0,17.025-5.634T481.2,151.18A18.459,18.459,0,0,0,475.818,137.634ZM393.63,165.015q-6.462.166-9.112.166-6.3,0-10.025-3.314t-3.728-9.527a12.485,12.485,0,0,1,3.4-9.113,11.426,11.426,0,0,1,8.533-3.48,10.273,10.273,0,0,1,7.912,3.272,12.255,12.255,0,0,1,3.023,8.658Zm76.305-3.645q-4.225,3.563-11.35,3.562h-4.309q-4.144-7.372-4.142-13.338a12.2,12.2,0,0,1,3.48-8.657,11.189,11.189,0,0,1,8.45-3.687,11.759,11.759,0,0,1,12.1,12.178Q474.16,157.809,469.935,161.37Z" transform="translate(-364.22 -132.208)" fill="#fff"/>
          </g>
        </g>
        <g id="Group_14814" data-name="Group 14814" transform="translate(175.073)">
          <path id="Path_7548" data-name="Path 7548" d="M576.815,94.868l-4.384,4.384,4.754,4.754a1.9,1.9,0,0,0,2.68,0l4.755-4.754-4.385-4.384A2.418,2.418,0,0,0,576.815,94.868Z" transform="translate(-572.431 -85.931)" fill="#009fca"/>
          <path id="Path_7549" data-name="Path 7549" d="M602.157,78.293l-4.384-4.384-4.385,4.384a2.419,2.419,0,0,0,0,3.421l4.385,4.384,4.384-4.384A2.419,2.419,0,0,0,602.157,78.293Z" transform="translate(-584.452 -73.909)" fill="#009fca"/>
          <path id="Path_7550" data-name="Path 7550" d="M615.805,94.868a2.418,2.418,0,0,0-3.421,0L608,99.252l4.754,4.754a1.9,1.9,0,0,0,2.68,0l4.754-4.754Z" transform="translate(-593.547 -85.931)" fill="#009fca"/>
        </g>
      </g>
      <g id="Group_14816" data-name="Group 14816" transform="translate(0 9.044)">
        <path id="Path_7551" data-name="Path 7551" d="M115.616,119.207c-8.911-2.294-6.479-11.157-6.479-11.157,4.858,6.524,8.818,4.454,8.818,4.454-10.843-6.3-8.314-16.339-8.314-16.339,6.535,8.792,14.935,6.458,14.935,6.458-.156,3.344,2.334,5.289,4.512,4.433s-.857-4.433-.857-4.433c8.879.7,13.051,3.2,14.29,4.105-.163,0-.323-.009-.487-.009q-11,0-17.493,6.631a22.885,22.885,0,0,0-6.5,16.7,28.262,28.262,0,0,0,.323,4.294c-6.114-8.155-5.539-12.073-5.539-12.073,2.16,2.339,6.029,1.618,5.805-.677S115.616,119.207,115.616,119.207Z" transform="translate(-108.834 -96.165)" fill="#009fca"/>
      </g>
    </g>
  </g>
  <g id="Mask_Group_73" data-name="Mask Group 73" clip-path="url(#clip-path)">
    <g id="Mask_Group_71" data-name="Mask Group 71" clip-path="url(#clip-path-2)">
      <g id="Group_14804" data-name="Group 14804" transform="translate(96.426 136.589) rotate(180)" opacity="0.02">
        <path id="Path_7519-2" data-name="Path 7519" d="M215.106,738.942c-60.495-15.575-43.984-75.746-43.984-75.746,32.986,44.29,59.865,30.237,59.865,30.237-73.611-42.765-56.438-110.92-56.438-110.92,44.364,59.685,101.394,43.841,101.394,43.841-1.059,22.7,15.845,35.91,30.63,30.094s-5.812-30.094-5.812-30.094c60.274,4.724,88.6,21.742,97.014,27.873-1.1-.016-2.188-.065-3.3-.065q-74.668,0-118.76,45.018-44.147,45.049-44.143,113.362a191.888,191.888,0,0,0,2.188,29.149c-41.513-55.362-37.6-81.967-37.6-81.967,14.662,15.881,40.932,10.986,39.407-4.593S215.106,738.942,215.106,738.942Z" transform="translate(-169.064 -582.513)" fill="#fff"/>
      </g>
    </g>
    <g id="Mask_Group_72" data-name="Mask Group 72" clip-path="url(#clip-path-3)">
      <g id="Group_14803" data-name="Group 14803" transform="translate(301.523 506.908)" opacity="0.02">
        <g transform="matrix(1, 0, 0, 1, -301.52, -506.91)" filter="url(#Path_7519)">
          <path id="Path_7519-3" data-name="Path 7519" d="M215.106,738.942c-60.495-15.575-43.984-75.746-43.984-75.746,32.986,44.29,59.865,30.237,59.865,30.237-73.611-42.765-56.438-110.92-56.438-110.92,44.364,59.685,101.394,43.841,101.394,43.841-1.059,22.7,15.845,35.91,30.63,30.094s-5.812-30.094-5.812-30.094c60.274,4.724,88.6,21.742,97.014,27.873-1.1-.016-2.188-.065-3.3-.065q-74.668,0-118.76,45.018-44.147,45.049-44.143,113.362a191.888,191.888,0,0,0,2.188,29.149c-41.513-55.362-37.6-81.967-37.6-81.967,14.662,15.881,40.932,10.986,39.407-4.593S215.106,738.942,215.106,738.942Z" transform="translate(132.46 -75.6)" fill="#fff"/>
        </g>
      </g>
    </g>
    <g id="Mask_Group_74" data-name="Mask Group 74" clip-path="url(#clip-path-2)">
      <g id="Group_15066" data-name="Group 15066" transform="translate(96.426 136.589) rotate(180)" opacity="0.02">
        <path id="Path_7719" data-name="Path 7719" d="M215.106,738.942c-60.495-15.575-43.984-75.746-43.984-75.746,32.986,44.29,59.865,30.237,59.865,30.237-73.611-42.765-56.438-110.92-56.438-110.92,44.364,59.685,101.394,43.841,101.394,43.841-1.059,22.7,15.845,35.91,30.63,30.094s-5.812-30.094-5.812-30.094c60.274,4.724,88.6,21.742,97.014,27.873-1.1-.016-2.188-.065-3.3-.065q-74.668,0-118.76,45.018-44.147,45.049-44.143,113.362a191.888,191.888,0,0,0,2.188,29.149c-41.513-55.362-37.6-81.967-37.6-81.967,14.662,15.881,40.932,10.986,39.407-4.593S215.106,738.942,215.106,738.942Z" transform="translate(-169.064 -582.513)" fill="#fff"/>
      </g>
    </g>
  </g>
</svg>
