<svg xmlns="http://www.w3.org/2000/svg" width="28" height="28" viewBox="0 0 28 28">
  <g id="Group_24304" data-name="Group 24304" transform="translate(-27 -391)">
    <circle id="Ellipse_616" data-name="Ellipse 616" cx="14" cy="14" r="14" transform="translate(27 391)" fill="#fec12d" opacity="0.093"/>
    <g id="file_1_" data-name="file (1)" transform="translate(11.958 375.958)">
      <g id="Group_15143" data-name="Group 15143" transform="translate(22 22)">
        <path id="Path_7739" data-name="Path 7739" d="M248.929,32.1a.7.7,0,0,0,.7.7h3.515a1.271,1.271,0,0,0-.169-.209l-3.84-3.84a1.273,1.273,0,0,0-.209-.169Z" transform="translate(-241.995 -28.387)" fill="#fec12d"/>
        <path id="Path_7740" data-name="Path 7740" d="M33.347,26.969h-3.71a1.254,1.254,0,0,1-1.253-1.253v-3.71C28.34,22,28.3,22,28.251,22h-5A1.254,1.254,0,0,0,22,23.253v11.3a1.254,1.254,0,0,0,1.253,1.253h7.224a3.771,3.771,0,0,1,2.6-6.5q.139,0,.275.01V27.1C33.353,27.057,33.351,27.013,33.347,26.969Zm-4.688,5.175H25.221a.275.275,0,1,1,0-.55h3.437a.275.275,0,1,1,0,.55Zm.982-2.946H25.221a.275.275,0,1,1,0-.55h4.419a.275.275,0,1,1,0,.55Z" transform="translate(-22 -22)" fill="#fec12d"/>
      </g>
      <path id="Path_7741" data-name="Path 7741" d="M282.361,279.141a3.221,3.221,0,1,0,3.221,3.221A3.225,3.225,0,0,0,282.361,279.141Zm1.448,2.448-1.481,1.886a.278.278,0,0,1-.411.025l-.982-.982a.275.275,0,0,1,.389-.389l.763.763,1.289-1.642a.275.275,0,1,1,.433.34Z" transform="translate(-249.283 -249.284)" fill="#fec12d"/>
    </g>
  </g>
</svg>
