<svg id="user_3_" data-name="user (3)" xmlns="http://www.w3.org/2000/svg" width="16.125" height="19.327" viewBox="0 0 16.125 19.327">
  <path id="Path_7631" data-name="Path 7631" d="M91.686,9.31a4.5,4.5,0,0,0,3.291-1.364,4.5,4.5,0,0,0,1.364-3.291,4.5,4.5,0,0,0-1.364-3.291,4.654,4.654,0,0,0-6.583,0,4.5,4.5,0,0,0-1.364,3.291A4.5,4.5,0,0,0,88.4,7.946,4.506,4.506,0,0,0,91.686,9.31ZM89.2,2.164a3.521,3.521,0,0,1,4.981,0,3.365,3.365,0,0,1,1.032,2.49,3.365,3.365,0,0,1-1.032,2.49,3.521,3.521,0,0,1-4.981,0,3.365,3.365,0,0,1-1.032-2.49A3.365,3.365,0,0,1,89.2,2.164Zm0,0" transform="translate(-83.746)" fill="#97aabd"/>
  <path id="Path_7632" data-name="Path 7632" d="M16.086,252.842a11.5,11.5,0,0,0-.157-1.221,9.622,9.622,0,0,0-.3-1.228,6.066,6.066,0,0,0-.5-1.145,4.317,4.317,0,0,0-.761-.992,3.356,3.356,0,0,0-1.093-.687,3.779,3.779,0,0,0-1.4-.253,1.417,1.417,0,0,0-.757.321c-.227.148-.492.319-.788.508a4.516,4.516,0,0,1-1.02.449,3.96,3.96,0,0,1-2.495,0,4.5,4.5,0,0,1-1.019-.449c-.293-.187-.559-.358-.789-.508a1.415,1.415,0,0,0-.756-.321,3.774,3.774,0,0,0-1.4.253,3.353,3.353,0,0,0-1.094.687,4.318,4.318,0,0,0-.761.992,6.077,6.077,0,0,0-.5,1.145,9.644,9.644,0,0,0-.3,1.228,11.42,11.42,0,0,0-.157,1.222c-.026.369-.039.753-.039,1.141a3.209,3.209,0,0,0,.953,2.428,3.431,3.431,0,0,0,2.456.9h9.306a3.431,3.431,0,0,0,2.456-.9,3.208,3.208,0,0,0,.953-2.428C16.125,253.594,16.111,253.21,16.086,252.842Zm-1.7,2.749a2.31,2.31,0,0,1-1.675.584H3.409a2.31,2.31,0,0,1-1.675-.584,2.1,2.1,0,0,1-.6-1.608c0-.362.012-.72.036-1.063a10.3,10.3,0,0,1,.142-1.1,8.505,8.505,0,0,1,.264-1.082,4.947,4.947,0,0,1,.411-.931,3.2,3.2,0,0,1,.559-.733,2.226,2.226,0,0,1,.727-.452,2.607,2.607,0,0,1,.892-.172c.04.021.11.061.225.136.233.152.5.325.8.514a5.612,5.612,0,0,0,1.28.572,5.092,5.092,0,0,0,3.191,0,5.618,5.618,0,0,0,1.281-.572c.3-.194.564-.362.8-.514.114-.074.185-.115.225-.136a2.608,2.608,0,0,1,.892.172,2.23,2.23,0,0,1,.727.452,3.192,3.192,0,0,1,.559.733,4.93,4.93,0,0,1,.411.931,8.485,8.485,0,0,1,.264,1.082,10.386,10.386,0,0,1,.142,1.1h0c.024.342.036.7.036,1.063A2.1,2.1,0,0,1,14.39,255.591Zm0,0" transform="translate(0 -237.981)" fill="#97aabd"/>
</svg>
