<svg xmlns="http://www.w3.org/2000/svg" width="151.243" height="23.38" viewBox="0 0 151.243 23.38">
  <g id="Group_7116" data-name="Group 7116" transform="translate(0.318)">
    <g id="sound-bars" transform="translate(15.865 0)">
      <path id="Path_335" data-name="Path 335" d="M.918,64.1A.918.918,0,0,0,0,65.017v8.849a.918.918,0,1,0,1.837,0V65.017A.918.918,0,0,0,.918,64.1Z" transform="translate(0 -57.752)" fill="#81acb8"/>
      <path id="Path_336" data-name="Path 336" d="M43.9,38.092a.918.918,0,0,0-.918.918V53.167a.918.918,0,1,0,1.837,0V39.01A.918.918,0,0,0,43.9,38.092Z" transform="translate(-38.597 -34.399)" fill="#81acb8"/>
      <path id="Path_337" data-name="Path 337" d="M86.884,1.9a.918.918,0,0,0-.918.918V24.357a.918.918,0,0,0,1.837,0V2.814A.918.918,0,0,0,86.884,1.9Z" transform="translate(-77.194 -1.896)" fill="#81acb8"/>
      <path id="Path_338" data-name="Path 338" d="M129.866,54.361a.918.918,0,0,0-.918.918V66.115a.918.918,0,1,0,1.837,0V55.279A.918.918,0,0,0,129.866,54.361Z" transform="translate(-115.79 -49.007)" fill="#81acb8"/>
      <path id="Path_339" data-name="Path 339" d="M172.849,64.1a.918.918,0,0,0-.918.918v8.849a.918.918,0,1,0,1.837,0V65.017A.918.918,0,0,0,172.849,64.1Z" transform="translate(-154.387 -57.752)" fill="#81acb8"/>
      <path id="Path_340" data-name="Path 340" d="M215.832,92.919a.918.918,0,0,0-.918.918V96.8a.918.918,0,1,0,1.837,0V93.837A.918.918,0,0,0,215.832,92.919Z" transform="translate(-192.984 -83.631)" fill="#81acb8"/>
    </g>
    <g id="sound-bars-2" data-name="sound-bars" transform="translate(-0.318 0)">
      <path id="Path_335-2" data-name="Path 335" d="M.918,64.1A.918.918,0,0,0,0,65.017v8.849a.918.918,0,1,0,1.837,0V65.017A.918.918,0,0,0,.918,64.1Z" transform="translate(94.922 -57.752)" fill="#81acb8"/>
      <path id="Path_336-2" data-name="Path 336" d="M43.9,38.092a.918.918,0,0,0-.918.918V53.167a.918.918,0,1,0,1.837,0V39.01A.918.918,0,0,0,43.9,38.092Z" transform="translate(56.325 -34.399)" fill="#81acb8"/>
      <path id="Path_337-2" data-name="Path 337" d="M86.884,1.9a.918.918,0,0,0-.918.918V24.357a.918.918,0,0,0,1.837,0V2.814A.918.918,0,0,0,86.884,1.9Z" transform="translate(17.728 -1.896)" fill="#81acb8"/>
      <path id="Path_353" data-name="Path 353" d="M86.884,1.9a.918.918,0,0,0-.918.918V24.357a.918.918,0,0,0,1.837,0V2.814A.918.918,0,0,0,86.884,1.9Z" transform="translate(29.873 -1.896)" fill="#81acb8"/>
      <path id="Path_347" data-name="Path 347" d="M86.884,1.9a.918.918,0,0,0-.918.918V24.357a.918.918,0,0,0,1.837,0V2.814A.918.918,0,0,0,86.884,1.9Z" transform="translate(42.524 -1.896)" fill="#81acb8"/>
      <path id="Path_338-2" data-name="Path 338" d="M129.866,54.361a.918.918,0,0,0-.918.918V66.115a.918.918,0,1,0,1.837,0V55.279A.918.918,0,0,0,129.866,54.361Z" transform="translate(-20.868 -49.007)" fill="#81acb8"/>
      <path id="Path_354" data-name="Path 354" d="M129.866,54.361a.918.918,0,0,0-.918.918V66.115a.918.918,0,1,0,1.837,0V55.279A.918.918,0,0,0,129.866,54.361Z" transform="translate(-8.723 -49.007)" fill="#81acb8"/>
      <path id="Path_348" data-name="Path 348" d="M129.866,54.361a.918.918,0,0,0-.918.918V66.115a.918.918,0,1,0,1.837,0V55.279A.918.918,0,0,0,129.866,54.361Z" transform="translate(3.928 -49.007)" fill="#81acb8"/>
      <path id="Path_339-2" data-name="Path 339" d="M172.849,64.1a.918.918,0,0,0-.918.918v8.849a.918.918,0,1,0,1.837,0V65.017A.918.918,0,0,0,172.849,64.1Z" transform="translate(-59.465 -57.752)" fill="#81acb8"/>
      <path id="Path_355" data-name="Path 355" d="M172.849,64.1a.918.918,0,0,0-.918.918v8.849a.918.918,0,1,0,1.837,0V65.017A.918.918,0,0,0,172.849,64.1Z" transform="translate(-47.32 -57.752)" fill="#81acb8"/>
      <path id="Path_349" data-name="Path 349" d="M172.849,64.1a.918.918,0,0,0-.918.918v8.849a.918.918,0,1,0,1.837,0V65.017A.918.918,0,0,0,172.849,64.1Z" transform="translate(-34.669 -57.752)" fill="#81acb8"/>
      <path id="Path_350" data-name="Path 350" d="M215.832,92.919a.918.918,0,0,0-.918.918V96.8a.918.918,0,1,0,1.837,0V93.837A.918.918,0,0,0,215.832,92.919Z" transform="translate(-73.266 -83.631)" fill="#81acb8"/>
      <path id="Path_351" data-name="Path 351" d="M215.832,92.919a.918.918,0,0,0-.918.918V96.8a.918.918,0,1,0,1.837,0V93.837A.918.918,0,0,0,215.832,92.919Z" transform="translate(-69.387 -83.631)" fill="#81acb8"/>
      <path id="Path_343" data-name="Path 343" d="M215.832,92.919a.918.918,0,0,0-.918.918V96.8a.918.918,0,1,0,1.837,0V93.837A.918.918,0,0,0,215.832,92.919Z" transform="translate(-207.155 -83.631)" fill="#81acb8"/>
      <path id="Path_345" data-name="Path 345" d="M215.832,92.919a.918.918,0,0,0-.918.918V96.8a.918.918,0,1,0,1.837,0V93.837A.918.918,0,0,0,215.832,92.919Z" transform="translate(-214.914 -83.631)" fill="#81acb8"/>
      <path id="Path_352" data-name="Path 352" d="M215.832,92.919a.918.918,0,0,0-.918.918V96.8a.918.918,0,1,0,1.837,0V93.837A.918.918,0,0,0,215.832,92.919Z" transform="translate(-65.507 -83.631)" fill="#81acb8"/>
      <path id="Path_344" data-name="Path 344" d="M215.832,92.919a.918.918,0,0,0-.918.918V96.8a.918.918,0,1,0,1.837,0V93.837A.918.918,0,0,0,215.832,92.919Z" transform="translate(-203.276 -83.631)" fill="#81acb8"/>
      <path id="Path_346" data-name="Path 346" d="M215.832,92.919a.918.918,0,0,0-.918.918V96.8a.918.918,0,1,0,1.837,0V93.837A.918.918,0,0,0,215.832,92.919Z" transform="translate(-211.035 -83.631)" fill="#81acb8"/>
    </g>
    <g id="sound-bars-3" data-name="sound-bars" transform="translate(42.208 0)">
      <path id="Path_335-3" data-name="Path 335" d="M.918,64.1A.918.918,0,0,0,0,65.017v8.849a.918.918,0,1,0,1.837,0V65.017A.918.918,0,0,0,.918,64.1Z" transform="translate(0 -57.752)" fill="#81acb8"/>
      <path id="Path_336-3" data-name="Path 336" d="M43.9,38.092a.918.918,0,0,0-.918.918V53.167a.918.918,0,1,0,1.837,0V39.01A.918.918,0,0,0,43.9,38.092Z" transform="translate(-38.597 -34.399)" fill="#81acb8"/>
      <path id="Path_337-3" data-name="Path 337" d="M86.884,1.9a.918.918,0,0,0-.918.918V24.357a.918.918,0,0,0,1.837,0V2.814A.918.918,0,0,0,86.884,1.9Z" transform="translate(-77.194 -1.896)" fill="#81acb8"/>
      <path id="Path_338-3" data-name="Path 338" d="M129.866,54.361a.918.918,0,0,0-.918.918V66.115a.918.918,0,1,0,1.837,0V55.279A.918.918,0,0,0,129.866,54.361Z" transform="translate(-115.79 -49.007)" fill="#81acb8"/>
    </g>
    <g id="sound-bars-4" data-name="sound-bars" transform="translate(59.779 0)">
      <path id="Path_335-4" data-name="Path 335" d="M.918,64.1A.918.918,0,0,0,0,65.017v8.849a.918.918,0,1,0,1.837,0V65.017A.918.918,0,0,0,.918,64.1Z" transform="translate(0 -57.752)" fill="#81acb8"/>
      <path id="Path_336-4" data-name="Path 336" d="M43.9,38.092a.918.918,0,0,0-.918.918V53.167a.918.918,0,1,0,1.837,0V39.01A.918.918,0,0,0,43.9,38.092Z" transform="translate(-38.597 -34.399)" fill="#81acb8"/>
      <path id="Path_337-4" data-name="Path 337" d="M86.884,1.9a.918.918,0,0,0-.918.918V24.357a.918.918,0,0,0,1.837,0V2.814A.918.918,0,0,0,86.884,1.9Z" transform="translate(-77.194 -1.896)" fill="#81acb8"/>
      <path id="Path_338-4" data-name="Path 338" d="M129.866,54.361a.918.918,0,0,0-.918.918V66.115a.918.918,0,1,0,1.837,0V55.279A.918.918,0,0,0,129.866,54.361Z" transform="translate(-115.79 -49.007)" fill="#81acb8"/>
    </g>
    <g id="sound-bars-5" data-name="sound-bars" transform="translate(77.351 0)">
      <path id="Path_335-5" data-name="Path 335" d="M.918,64.1A.918.918,0,0,0,0,65.017v8.849a.918.918,0,1,0,1.837,0V65.017A.918.918,0,0,0,.918,64.1Z" transform="translate(0 -57.752)" fill="#81acb8"/>
      <path id="Path_336-5" data-name="Path 336" d="M43.9,38.092a.918.918,0,0,0-.918.918V53.167a.918.918,0,1,0,1.837,0V39.01A.918.918,0,0,0,43.9,38.092Z" transform="translate(-38.597 -34.399)" fill="#81acb8"/>
      <path id="Path_337-5" data-name="Path 337" d="M86.884,1.9a.918.918,0,0,0-.918.918V24.357a.918.918,0,0,0,1.837,0V2.814A.918.918,0,0,0,86.884,1.9Z" transform="translate(-77.194 -1.896)" fill="#81acb8"/>
      <path id="Path_338-5" data-name="Path 338" d="M129.866,54.361a.918.918,0,0,0-.918.918V66.115a.918.918,0,1,0,1.837,0V55.279A.918.918,0,0,0,129.866,54.361Z" transform="translate(-115.79 -49.007)" fill="#81acb8"/>
    </g>
  </g>
</svg>
